<?xml version="1.0" standalone="no"?>
<!DOCTYPE svg PUBLIC "-//W3C//DTD SVG 1.1//EN" "http://www.w3.org/Graphics/SVG/1.1/DTD/svg11.dtd" >
<svg xmlns="http://www.w3.org/2000/svg">
<metadata></metadata>
<defs>
<font id="dinroundproregular" horiz-adv-x="1069" >
<font-face units-per-em="2048" ascent="1565" descent="-483" />
<missing-glyph horiz-adv-x="509" />
<glyph horiz-adv-x="0" />
<glyph horiz-adv-x="0" />
<glyph horiz-adv-x="682" />
<glyph unicode="&#xd;" horiz-adv-x="509" />
<glyph unicode=" "  horiz-adv-x="509" />
<glyph unicode="&#x09;" horiz-adv-x="509" />
<glyph unicode="&#xa0;" horiz-adv-x="509" />
<glyph unicode="!" horiz-adv-x="648" d="M253 96q0 43 29.5 73.5t72.5 30.5t73.5 -30.5t30.5 -73.5t-30.5 -72.5t-73.5 -29.5t-72.5 29.5t-29.5 72.5zM276 509v851q0 50 15 74q20 32 64 32q45 0 65 -32q14 -22 14 -74v-851q0 -52 -14 -74q-21 -33 -65 -33q-43 0 -64 33q-15 24 -15 74z" />
<glyph unicode="&#x22;" horiz-adv-x="808" d="M156 1150v220q0 48 13 69q19 31 61 31q43 0 62 -31q13 -21 13 -69v-220q0 -48 -13 -69q-19 -31 -62 -31q-42 0 -61 31q-13 21 -13 69zM504 1150v220q0 48 13 69q19 31 62 31q42 0 61 -31q13 -21 13 -69v-220q0 -48 -13 -69q-19 -31 -61 -31q-43 0 -62 31q-13 21 -13 69z " />
<glyph unicode="#" horiz-adv-x="1359" d="M121 527q0 37 29 56q17 11 62 11h138l59 294h-134q-45 0 -62 11q-29 19 -29 55q0 37 29 56q17 11 62 11h160l73 365q9 48 30 67q17 16 44 16q32 0 53 -21q15 -15 17.5 -35t-4.5 -54l-67 -338h309l73 365q9 49 29 67q17 16 44 16q33 0 54 -21q15 -15 17.5 -35t-4.5 -54 l-68 -338h113q45 0 62 -11q29 -19 29 -56q0 -36 -29 -55q-17 -11 -62 -11h-138l-59 -294h133q46 0 63 -11q29 -19 29 -56q0 -36 -29 -55q-17 -11 -63 -11h-159l-77 -386q-9 -48 -30 -67q-17 -16 -44 -16q-32 0 -53 21q-15 15 -17.5 35t4.5 54l70 359h-308l-77 -386 q-9 -49 -29 -67q-17 -16 -45 -16q-32 0 -53 21q-15 15 -17.5 35t4.5 54l71 359h-112q-45 0 -62 11q-29 19 -29 55zM497 594h308l58 294h-308z" />
<glyph unicode="$" horiz-adv-x="1205" d="M105 200q0 31 22 53q19 19 48 19q32 0 73 -32q71 -55 138 -81t153 -31v543l-35 6q-89 13 -150 38t-115 73q-113 100 -113 272q0 171 107 280t294 127v51q0 45 14 68q20 32 61 32q42 0 62 -32q13 -21 13 -68v-52q74 -7 135 -29.5t138 -68.5q61 -36 61 -80q0 -26 -18 -46 q-19 -22 -49 -22q-26 0 -72 28q-107 71 -206 83v-534l35 -5q102 -17 162 -39.5t106 -62.5q122 -103 122 -289q0 -169 -111.5 -277.5t-302.5 -130.5v-52q0 -48 -13 -69q-20 -32 -62 -32q-41 0 -61 32q-14 23 -14 69v48q-107 5 -187 33t-169 89q-66 44 -66 89zM278 1067 q0 -114 67 -171q39 -34 82 -52t112 -28v517q-123 -12 -192 -83.5t-69 -182.5zM666 131q128 17 199 85t71 180q0 121 -71 184q-35 30 -72.5 44t-117.5 26l-9 1v-520z" />
<glyph unicode="%" horiz-adv-x="1707" d="M132 981v213q0 126 78 201t200 75t199 -75t77 -201v-213q0 -126 -77 -201t-199 -75t-200 75t-78 201zM250 986q0 -178 160 -178q158 0 158 178v203q0 178 -158 178q-160 0 -160 -178v-203zM461 40q-1 19 14 51l662 1325q15 32 32 43q11 7 26 7q13 0 25 -6q27 -13 29 -42 q1 -19 -14 -51l-662 -1325q-15 -32 -32 -43q-11 -7 -26 -7q-13 0 -25 6q-27 13 -29 42zM1021 264v213q0 126 77.5 201.5t199.5 75.5t199.5 -75.5t77.5 -201.5v-213q0 -126 -77.5 -201t-199.5 -75t-199.5 75t-77.5 201zM1139 269q0 -178 159 -178t159 178v203q0 178 -159 178 t-159 -178v-203z" />
<glyph unicode="&#x26;" horiz-adv-x="1480" d="M159 409q0 52 11 98.5t34 86t48 71.5t66 66t73 58t83 58q-37 44 -57 70.5t-47.5 70.5t-40.5 88t-13 90q0 130 92 217t230 87q135 0 225.5 -87.5t90.5 -217.5q0 -85 -45 -148.5t-126 -118.5l-99 -68l373 -449q39 58 56 117t24 153q4 49 16 67q18 28 57 28q41 0 59 -29 q13 -19 13 -64q0 -98 -35 -208q-31 -99 -96 -177l112 -133q34 -41 34 -68q0 -35 -26 -57q-23 -18 -50 -18q-34 0 -73 48l-99 120q-185 -172 -432 -172q-209 0 -333.5 115.5t-124.5 305.5zM308 417q0 -130 86.5 -212t222.5 -82q90 0 173 31.5t172 110.5l-404 485 q-63 -42 -99 -70t-75.5 -70t-57.5 -89t-18 -104zM468 1169q0 -51 27.5 -101t104.5 -140l37 24q89 58 130.5 104t41.5 109q0 75 -48.5 124t-122.5 49q-73 0 -121.5 -48t-48.5 -121z" />
<glyph unicode="'" horiz-adv-x="460" d="M156 1150v220q0 48 13 69q19 31 61 31q43 0 62 -31q13 -21 13 -69v-220q0 -48 -13 -69q-19 -31 -62 -31q-42 0 -61 31q-13 21 -13 69z" />
<glyph unicode="(" horiz-adv-x="609" d="M195 194v1072q0 127 39 205q35 69 102 136q41 41 72 41t52 -21q19 -19 19 -47q0 -22 -10 -38t-31 -37q-45 -45 -65 -89q-29 -61 -29 -164v-1045q0 -103 29 -164q20 -44 65 -89q21 -21 31 -37t10 -38q0 -28 -19 -47q-20 -20 -52 -20q-31 0 -72 41q-68 68 -102 135 q-39 78 -39 206z" />
<glyph unicode=")" horiz-adv-x="609" d="M130 -121q0 22 10 38t31 37q47 47 66 89q28 59 28 164v1045q0 105 -28 164q-19 42 -66 89q-21 21 -31 37t-10 38q0 27 20 47q21 21 52 21q30 0 71 -41q67 -67 102 -136q40 -80 40 -205v-1072q0 -126 -40 -206q-34 -67 -102 -135q-41 -41 -71 -41q-32 0 -52 20t-20 47z " />
<glyph unicode="*" horiz-adv-x="974" d="M161 956q8 18 40 37l178 107l-178 107q-32 19 -40 37q-11 24 4 49q17 29 45 29q19 0 49 -17l173 -105v201q0 37 10 52q15 24 45 24t45 -24q11 -17 11 -52v-201l173 105q30 17 49 17q28 0 45 -29q15 -25 4 -49q-8 -18 -40 -37l-178 -107l178 -107q32 -19 40 -37 q11 -24 -4 -49q-16 -28 -45 -28q-19 0 -49 17l-173 103v-199q0 -36 -11 -52q-15 -24 -45 -24t-45 24q-10 15 -10 52v199l-173 -103q-30 -17 -49 -17q-29 0 -45 28q-15 25 -4 49z" />
<glyph unicode="+" d="M99 552q0 36 29 55q17 11 62 11h278v278q0 45 11 62q19 29 56 29q36 0 55 -29q11 -17 11 -62v-278h278q45 0 62 -11q29 -19 29 -55t-29 -55q-19 -12 -62 -12h-278v-277q0 -46 -11 -63q-19 -28 -55 -28q-37 0 -56 28q-11 17 -11 63v277h-278q-43 0 -62 12q-29 19 -29 55z " />
<glyph unicode="," horiz-adv-x="488" d="M80 -191q-5 25 9 69l91 274q14 42 34 60q16 15 43 15q25 0 47 -15t27 -38q5 -26 -9 -70l-92 -273q-14 -44 -33 -60q-18 -16 -43 -16t-47 15.5t-27 38.5z" />
<glyph unicode="-" horiz-adv-x="872" d="M147 552q0 36 29 55q17 11 63 11h395q45 0 62 -11q29 -19 29 -55t-29 -55q-19 -12 -62 -12h-395q-44 0 -63 12q-29 19 -29 55z" />
<glyph unicode="." horiz-adv-x="552" d="M160 111q0 49 33.5 82.5t82.5 33.5t83 -33.5t34 -82.5t-34 -83t-83 -34t-82.5 34t-33.5 83z" />
<glyph unicode="/" horiz-adv-x="724" d="M24 -116q-9 26 6 73l530 1589q23 72 74 72q22 0 41 -12.5t26 -31.5q9 -26 -6 -73l-530 -1589q-23 -72 -74 -72q-22 0 -41 12.5t-26 31.5z" />
<glyph unicode="0" d="M135 389v680q0 179 113.5 290t286.5 111t286 -111t113 -290v-680q0 -179 -113 -290t-286 -111t-286.5 111t-113.5 290zM285 388q0 -119 66 -193t184 -74t183.5 73.5t65.5 193.5v682q0 119 -65.5 193t-183.5 74t-184 -74t-66 -193v-682z" />
<glyph unicode="1" d="M223 1107q0 18 8.5 32t31.5 37l250 249q41 41 84 41q34 0 58 -22q23 -22 23 -84v-1268q0 -47 -13 -68q-20 -32 -62 -32q-41 0 -61 32q-14 23 -14 68v1152l-172 -171q-36 -36 -62 -36q-28 0 -50 22q-21 21 -21 48z" />
<glyph unicode="2" d="M129 72q0 32 45 90l523 677q50 65 73.5 124.5t23.5 132.5q0 109 -65.5 175t-183.5 66q-94 0 -162 -47.5t-90 -147.5q-9 -42 -30 -68q-16 -21 -50 -21q-35 0 -53 24q-17 23 -17 53q0 49 28.5 116.5t81.5 118.5q111 105 291 105q183 0 291 -99t108 -274q0 -96 -31 -169.5 t-104 -167.5l-484 -627h536q44 0 63 -12q28 -17 28 -54t-28 -56q-19 -11 -63 -11h-615q-29 0 -42.5 1t-29.5 6t-26 16q-18 18 -18 49z" />
<glyph unicode="3" horiz-adv-x="1070" d="M97 312q0 46 22 68q19 21 52 21q29 0 45 -16q23 -21 29 -60q18 -107 84 -155.5t181 -48.5q121 0 203 76.5t82 203.5q0 133 -71.5 207t-207.5 75q-36 0 -54 11q-29 19 -29 54q0 34 29 53q18 11 54 11q125 1 190 71t65 194q0 120 -71.5 190t-183.5 70q-101 0 -161 -44 t-82 -140q-10 -44 -31 -64q-19 -17 -46 -17q-48 0 -61 45q-8 27 -5 60q5 50 31.5 102t65.5 89q105 102 289 102q177 0 291.5 -105.5t114.5 -283.5q0 -239 -203 -327q106 -35 165.5 -124t59.5 -233q0 -122 -59 -216.5t-157 -143.5t-217 -49q-113 0 -186 26t-132 82 q-43 42 -69.5 98.5t-26.5 117.5z" />
<glyph unicode="4" d="M61 306q0 20 19 60l521 1037q15 31 31.5 47t42.5 16q27 0 48 -18.5t21 -45.5q0 -25 -18 -62l-486 -971h408v323q0 46 14 69q20 32 61 32t61 -32q14 -23 14 -69v-323h110q44 0 63 -12q28 -19 28 -55t-28 -55q-17 -11 -63 -11h-110v-144q0 -45 -14 -68q-20 -32 -61 -32 t-61 32q-14 23 -14 68v144h-490q-48 0 -69 15q-28 20 -28 55z" />
<glyph unicode="5" d="M144 306q0 36 20 59q19 22 52 22q31 0 48 -17q20 -18 33 -73q44 -176 241 -176q117 0 182 65q51 51 65.5 122.5t14.5 173.5q0 58 -5.5 105t-21.5 95.5t-42.5 81t-72.5 53t-107 20.5q-77 0 -132 -24.5t-96 -83.5q-17 -22 -31 -33q-15 -11 -43 -11q-31 0 -51 20 q-21 20 -21 64v599q0 49 21 70q20 20 69 20h564q46 0 63 -11q29 -19 29 -55q0 -37 -29 -56q-17 -11 -63 -11h-521v-457q97 99 262 99q160 0 253 -91q124 -124 124 -394q0 -128 -24 -221.5t-95 -164.5q-108 -108 -292 -108q-186 0 -292 100q-45 43 -73.5 102t-28.5 116z" />
<glyph unicode="6" d="M131 409q0 142 91 323l335 671q15 31 31.5 47t42.5 16q27 0 48 -18.5t21 -45.5q0 -25 -18 -62l-266 -533q67 27 147 27q170 0 275 -116.5t105 -297.5q0 -189 -110 -310.5t-294 -121.5q-187 0 -297.5 115.5t-110.5 305.5zM281 414q0 -134 69.5 -213.5t186.5 -79.5 t187.5 79.5t70.5 213.5q0 126 -68.5 209t-189.5 83q-117 0 -186.5 -78.5t-69.5 -213.5z" />
<glyph unicode="7" d="M155 1189v179q0 50 20 70t70 20h619q66 0 89 -21q21 -19 21 -52q0 -18 -20 -73l-467 -1249q-17 -46 -34 -59q-17 -12 -37 -12q-26 1 -47 15.5t-25 37.5t12 68l454 1212h-506v-136q0 -48 -13 -69q-19 -31 -62 -31q-42 0 -61 31q-13 21 -13 69z" />
<glyph unicode="8" d="M103 402q0 122 60 211t161 144q-193 109 -193 322q0 171 114.5 281t289.5 110t289 -110t114 -281q0 -213 -193 -322q101 -55 161 -144t60 -211q0 -182 -123 -298t-308 -116t-308.5 116t-123.5 298zM253 404q0 -122 81 -202.5t201 -80.5t200.5 80.5t80.5 202.5 q0 121 -81 202.5t-200 81.5q-120 0 -201 -81.5t-81 -202.5zM281 1077q0 -113 71 -186.5t183 -73.5t182.5 73.5t70.5 186.5t-70.5 186.5t-182.5 73.5t-183 -73.5t-71 -186.5z" />
<glyph unicode="9" d="M126 1038q0 189 110 310.5t294 121.5q187 0 297.5 -115t110.5 -305q0 -143 -91 -324l-335 -671q-15 -31 -31.5 -47t-42.5 -16q-27 0 -48 18.5t-21 45.5q0 25 18 62l266 533q-64 -26 -147 -26q-170 0 -275 116t-105 297zM274 1044q0 -126 68.5 -208.5t189.5 -82.5 q117 0 186.5 78t69.5 213q0 134 -69.5 213.5t-186.5 79.5t-187.5 -79.5t-70.5 -213.5z" />
<glyph unicode=":" horiz-adv-x="608" d="M215 111q0 49 34 82.5t83 33.5t83 -33.5t34 -82.5t-34 -83t-83 -34t-83 34t-34 83zM215 706q0 49 34 82.5t83 33.5t83 -33.5t34 -82.5t-34 -83t-83 -34t-83 34t-34 83z" />
<glyph unicode=";" horiz-adv-x="608" d="M184 -191q-5 23 10 69l91 274q14 44 33 60q16 15 43 15q25 0 47 -15t27 -38q5 -26 -9 -70l-91 -273q-14 -42 -34 -60q-18 -16 -43 -16t-47 15.5t-27 38.5zM246 706q0 49 33.5 82.5t82.5 33.5t83 -33.5t34 -82.5t-34 -83t-83 -34t-82.5 34t-33.5 83z" />
<glyph unicode="&#x3c;" d="M180 552q0 38 23 60t73 47l476 238q37 18 61 18q27 0 46 -21t19 -48q0 -26 -16.5 -42.5t-47.5 -31.5l-439 -220l439 -220q31 -15 47.5 -31.5t16.5 -42.5q0 -27 -19 -48.5t-46 -21.5q-22 0 -61 19l-476 237q-33 17 -50 28t-31.5 32t-14.5 48z" />
<glyph unicode="=" d="M99 375q0 36 29 55q17 11 62 11h689q45 0 62 -11q29 -19 29 -55q0 -37 -29 -56q-17 -11 -62 -11h-689q-45 0 -62 11q-29 19 -29 56zM99 726q0 36 29 55q19 12 62 12h689q43 0 62 -12q29 -19 29 -55t-29 -55q-19 -12 -62 -12h-689q-43 0 -62 12q-29 19 -29 55z" />
<glyph unicode="&#x3e;" d="M191 257q0 26 16.5 42.5t47.5 31.5l439 220l-439 220q-31 15 -47.5 31.5t-16.5 42.5q0 27 19 48t46 21q24 0 61 -18l476 -238q33 -17 50 -27.5t31.5 -31.5t14.5 -48q0 -39 -23.5 -61t-72.5 -47l-476 -237q-39 -19 -61 -19q-27 0 -46 21.5t-19 48.5z" />
<glyph unicode="?" horiz-adv-x="1018" d="M158 1130q0 57 28.5 121t75.5 113q104 106 278 106q164 0 275 -104.5t111 -265.5q0 -68 -23.5 -124t-69.5 -124l-159 -229q-39 -57 -44 -147q-2 -42 -23 -63t-53 -21q-38 0 -59 29q-16 23 -16 61q0 65 12.5 106.5t51.5 97.5l167 238q66 92 66 176q0 102 -67 170.5 t-168 68.5q-104 0 -169 -64q-56 -54 -70 -147q-5 -36 -19 -54q-18 -23 -57 -23q-34 0 -52 22q-16 20 -16 57zM451 96q0 43 29.5 73.5t72.5 30.5t73 -30.5t30 -73.5t-30 -72.5t-73 -29.5t-72.5 29.5t-29.5 72.5z" />
<glyph unicode="@" horiz-adv-x="1461" d="M145 327v689q0 213 114 327q117 117 315 117h313q198 0 315 -117q114 -114 114 -327v-924q0 -47 -13 -68q-20 -32 -62 -32q-41 0 -61 32q-14 23 -14 68v19q-52 -64 -116 -93.5t-155 -29.5q-180 0 -278 122q-51 63 -71 149t-20 229t20 229.5t71 149.5q98 122 278 122 q172 0 273 -126v148q0 84 -19 138t-63 98q-80 80 -220 80h-271q-140 0 -220 -80q-44 -44 -63 -98t-19 -138v-680q0 -86 15 -123t60 -85q34 -37 34 -65q0 -34 -23 -54q-21 -20 -51 -20q-20 0 -35.5 10.5t-37.5 34.5q-59 61 -84.5 123.5t-25.5 174.5zM673 488q0 -64 5 -113 t20.5 -100t42 -84.5t72 -55t108.5 -21.5q62 0 108 21.5t72 55t41.5 84.5t20.5 100.5t5 112.5q0 64 -5 113t-20.5 100.5t-41.5 85t-72 55t-108 21.5q-63 0 -108.5 -21.5t-72 -55t-42 -85t-20.5 -100.5t-5 -113z" />
<glyph unicode="A" horiz-adv-x="1251" d="M52 48q-2 9 -2 17.5t2 16.5q4 15 11 39l474 1263q14 38 30 57q23 25 59 25q35 0 58 -25q19 -22 31 -57l473 -1263q8 -24 12 -39q2 -8 2 -16t-2 -18q-4 -18 -19 -33q-23 -23 -58 -23q-22 0 -40 13q-20 16 -37 63l-97 262h-648l-96 -262q-17 -46 -38 -63q-18 -13 -40 -13 q-34 0 -57 23q-14 15 -18 33zM350 465h550l-274 750z" />
<glyph unicode="B" horiz-adv-x="1372" d="M211 95v1268q0 53 21 74t74 21h456q194 0 313 -104.5t119 -284.5q0 -113 -60.5 -198.5t-156.5 -120.5q109 -40 174.5 -130t65.5 -217q0 -194 -119 -298.5t-318 -104.5h-474q-52 0 -74 22q-21 21 -21 73zM369 139h397q135 0 214 73t79 196t-79 194.5t-214 71.5h-397v-535z M369 813h381q128 0 207 64.5t79 189.5t-79 188.5t-207 63.5h-381v-506z" />
<glyph unicode="C" horiz-adv-x="1306" d="M156 729q0 114 2 179.5t10 134t24.5 112.5t43 87t68.5 85q141 143 363 143q247 0 391 -175q43 -52 68 -112.5t25 -99.5q0 -36 -21 -57q-20 -20 -52 -20q-30 0 -48 16q-22 20 -37 65q-39 117 -123 180.5t-204 63.5q-149 0 -250 -104q-67 -68 -85 -165.5t-18 -332.5 t18 -332.5t85 -165.5q101 -104 250 -104q120 0 204 63.5t123 180.5q15 45 37 65q19 17 48 17q31 0 52 -21t21 -57q0 -39 -25 -99.5t-68 -112.5q-144 -175 -391 -175q-222 0 -363 143q-42 42 -68.5 85t-43 87t-24.5 112.5t-10 134t-2 179.5z" />
<glyph unicode="D" horiz-adv-x="1382" d="M211 95v1268q0 53 21 74t74 21h407q124 0 217.5 -37t167.5 -116q31 -34 54 -73.5t37 -90t22 -91t11.5 -105.5t4 -103.5t0.5 -112.5t-0.5 -112.5t-4 -103t-11.5 -105.5t-22 -91t-37 -89.5t-54 -73.5q-144 -154 -385 -154h-407q-52 0 -74 22q-21 21 -21 73zM369 139h317 q191 0 288 108q33 36 53.5 86t29 120.5t10.5 126t2 149.5t-2 149.5t-10.5 126t-29 120.5t-53.5 86q-97 108 -288 108h-317v-1180z" />
<glyph unicode="E" horiz-adv-x="1228" d="M211 95v1268q0 53 21 74t74 21h721q48 0 68 -12q29 -19 29 -57q0 -39 -29 -58q-20 -12 -68 -12h-658v-514h546q48 0 68 -12q30 -20 30 -58q0 -37 -30 -57q-20 -12 -68 -12h-546v-527h658q48 0 68 -12q29 -19 29 -57q0 -39 -29 -58q-20 -12 -68 -12h-721q-52 0 -74 22 q-21 21 -21 73z" />
<glyph unicode="F" horiz-adv-x="1187" d="M211 98v1265q0 53 21 74t74 21h721q48 0 68 -12q29 -19 29 -57q0 -39 -29 -58q-20 -12 -68 -12h-658v-537h547q48 0 68 -12q30 -20 30 -57q0 -38 -30 -58q-20 -12 -68 -12h-547v-545q0 -49 -15 -73q-21 -33 -64 -33q-44 0 -65 33q-14 22 -14 73z" />
<glyph unicode="G" horiz-adv-x="1331" d="M156 729q0 114 2 179.5t10 134t24.5 112.5t43 87t68.5 85q141 143 363 143q247 0 391 -175q43 -52 68 -112.5t25 -99.5q0 -36 -21 -57q-20 -20 -52 -20q-30 0 -48 16q-22 20 -37 65q-39 117 -123 180.5t-204 63.5q-149 0 -250 -104q-67 -68 -85 -165.5t-18 -332.5 q0 -236 18.5 -333.5t84.5 -164.5q102 -104 252 -104q152 0 253 101q60 61 80 143.5t20 244.5h-269q-46 0 -68 13q-30 20 -30 57t30 57q22 13 68 13h326q52 0 74 -22t22 -74v-26q0 -207 -28.5 -311t-116.5 -191q-144 -144 -361 -144q-219 0 -364 143q-52 52 -81.5 102 t-44.5 126.5t-18.5 151.5t-3.5 218z" />
<glyph unicode="H" horiz-adv-x="1425" d="M211 98v1262q0 52 14 74q20 32 65 32q44 0 64 -32q15 -24 15 -74v-555h688v555q0 52 14 74q20 32 65 32q44 0 64 -32q14 -22 14 -74v-1262q0 -51 -14 -73q-21 -33 -64 -33q-44 0 -65 33q-14 22 -14 73v568h-688v-568q0 -49 -15 -73q-21 -33 -64 -33q-44 0 -65 33 q-14 22 -14 73z" />
<glyph unicode="I" horiz-adv-x="579" d="M211 98v1262q0 52 14 74q20 32 65 32q44 0 64 -32q15 -24 15 -74v-1262q0 -49 -15 -73q-21 -33 -64 -33q-44 0 -65 33q-14 22 -14 73z" />
<glyph unicode="J" horiz-adv-x="1016" d="M52 140q0 29 19 50q21 22 48 22t70 -30q77 -55 182 -55q143 0 221 87.5t78 248.5v897q0 52 14 74q20 32 65 32q44 0 64 -32q14 -22 14 -74v-918q0 -208 -126.5 -331t-329.5 -123q-162 0 -278 85q-41 29 -41 67z" />
<glyph unicode="K" horiz-adv-x="1330" d="M211 98v1262q0 52 14 74q20 32 65 32q44 0 64 -32q15 -24 15 -74v-726l646 784q39 48 72 48q29 0 51 -18q26 -22 26 -56q0 -27 -35 -69l-346 -421l438 -768q23 -42 23 -71q0 -38 -40 -60q-19 -11 -40 -11q-27 0 -45 16.5t-35 47.5l-410 728l-305 -366v-320q0 -49 -15 -73 q-21 -33 -64 -33q-44 0 -65 33q-14 22 -14 73z" />
<glyph unicode="L" horiz-adv-x="1171" d="M211 95v1265q0 52 14 74q20 32 65 32q44 0 64 -32q15 -24 15 -74v-1221h653q48 0 68 -12q29 -19 29 -57q0 -39 -29 -58q-20 -12 -68 -12h-716q-52 0 -74 22q-21 21 -21 73z" />
<glyph unicode="M" horiz-adv-x="1671" d="M211 98v1268q0 52 25 77q22 23 56 23q28 0 47 -12q23 -14 42 -54l455 -981l454 981q19 40 42 54q20 12 47 12q35 0 57 -23q24 -24 24 -77v-1268q0 -51 -14 -73q-21 -33 -65 -33q-43 0 -64 33q-14 22 -14 73v1001l-376 -809q-18 -37 -38 -55t-53 -18t-53.5 18t-38.5 55 l-375 809v-1001q0 -49 -15 -73q-21 -33 -64 -33q-44 0 -65 33q-14 22 -14 73z" />
<glyph unicode="N" horiz-adv-x="1501" d="M211 98v1265q0 54 25 79q22 24 59 24q27 0 46.5 -15t42.5 -47l749 -1106v1062q0 52 14 74q20 32 64 32q45 0 65 -32q14 -22 14 -74v-1265q0 -55 -24 -79t-60 -24q-27 0 -47 15t-42 47l-748 1106v-1062q0 -49 -15 -73q-21 -33 -64 -33q-44 0 -65 33q-14 22 -14 73z" />
<glyph unicode="O" horiz-adv-x="1335" d="M156 729q0 114 2 179t10 134.5t24 113t42.5 86.5t68.5 85q145 143 365 143q219 0 364 -143q42 -42 68.5 -85t43 -87t24.5 -112.5t10 -134t2 -179.5t-2 -179.5t-10 -134t-24.5 -112.5t-43 -87t-68.5 -85q-145 -143 -364 -143q-220 0 -365 143q-42 42 -68.5 85t-42.5 86.5 t-24 113t-10 134.5t-2 179zM313 729q0 -236 18.5 -333.5t84.5 -164.5q101 -104 252 -104t252 104q66 67 84 164t18 334t-18 334t-84 164q-101 104 -252 104t-252 -104q-66 -67 -84.5 -164.5t-18.5 -333.5z" />
<glyph unicode="P" horiz-adv-x="1295" d="M211 98v1265q0 53 21 74t74 21h450q200 0 326 -117.5t126 -310.5q0 -194 -126 -312t-326 -118h-387v-502q0 -49 -15 -73q-21 -33 -64 -33q-44 0 -65 33q-14 22 -14 73zM369 739h374q141 0 224 75t83 216t-83 215t-224 74h-374v-580z" />
<glyph unicode="Q" horiz-adv-x="1335" d="M156 729q0 114 2 179t10 134.5t24 113t42.5 86.5t68.5 85q145 143 365 143q219 0 364 -143q42 -42 68.5 -85t43 -87t24.5 -112.5t10 -134t2 -179.5q0 -242 -18 -352.5t-85 -195.5l106 -105q28 -28 34 -51q2 -7 2 -14q0 -24 -21 -45q-20 -20 -43 -20q-7 0 -15 2 q-23 6 -51 34l-107 105q-134 -99 -314 -99q-220 0 -365 143q-42 42 -68.5 85t-42.5 86.5t-24 113t-10 134.5t-2 179zM313 729q0 -236 18.5 -333.5t84.5 -164.5q101 -104 250 -104q120 0 206 70l-136 137q-28 28 -34 51q-2 7 -2 14q0 23 21 44t44 21q7 0 14 -2q23 -6 51 -34 l131 -130q38 62 49.5 154t11.5 277q0 237 -18 334t-84 164q-101 104 -252 104t-252 -104q-66 -67 -84.5 -164.5t-18.5 -333.5z" />
<glyph unicode="R" horiz-adv-x="1345" d="M211 98v1265q0 53 21 74t74 21h466q194 0 314 -109t120 -296q0 -156 -86.5 -258t-231.5 -133l302 -528q23 -42 23 -71q0 -39 -39 -60q-19 -11 -40 -11q-27 0 -45 16.5t-35 47.5l-338 591h-347v-549q0 -49 -15 -73q-21 -33 -64 -33q-44 0 -65 33q-14 22 -14 73zM369 784 h389q132 0 211.5 68.5t79.5 198.5t-79.5 199t-211.5 69h-389v-535z" />
<glyph unicode="S" horiz-adv-x="1205" d="M105 200q0 31 22 53q19 19 48 19q32 0 73 -32q82 -62 159 -87.5t184 -25.5q161 0 253 71t92 198q0 121 -71 184q-35 30 -72.5 44t-117.5 26l-171 27q-89 13 -150 38t-115 73q-113 100 -113 272q0 187 126 298.5t341 111.5q111 0 186.5 -22t170.5 -80q61 -36 61 -80 q0 -26 -18 -46q-19 -22 -49 -22q-26 0 -72 28q-73 50 -134 68.5t-151 18.5q-145 0 -227 -73t-82 -195q0 -114 67 -171q40 -34 83 -52t113 -28l160 -24q102 -17 162 -39.5t106 -62.5q122 -103 122 -289q0 -190 -138 -301.5t-367 -111.5q-133 0 -223.5 27.5t-191.5 95.5 q-66 44 -66 89z" />
<glyph unicode="T" horiz-adv-x="1120" d="M52 1389q0 37 30 57q20 12 68 12h821q47 0 67 -12q30 -20 30 -57q0 -38 -30 -58q-20 -12 -67 -12h-332v-1221q0 -51 -14 -73q-21 -33 -65 -33q-43 0 -64 33q-15 24 -15 73v1221h-331q-48 0 -68 12q-30 20 -30 58z" />
<glyph unicode="U" horiz-adv-x="1400" d="M189 481v879q0 50 15 74q20 32 64 32q45 0 65 -32q14 -22 14 -74v-866q0 -166 96 -266.5t256 -100.5t257.5 100.5t97.5 266.5v866q0 52 14 74q20 32 65 32q44 0 64 -32q14 -22 14 -74v-879q0 -217 -144.5 -355t-367.5 -138t-366.5 138t-143.5 355z" />
<glyph unicode="V" horiz-adv-x="1112" d="M39 1413q5 23 27 38t47 15q27 0 43 -15q19 -16 33 -60l367 -1122l367 1122q14 44 33 60q16 15 43 15q25 0 47 -15t27 -38q1 -7 1 -15q0 -23 -10 -55l-422 -1266q-15 -47 -33 -64q-22 -21 -53 -21q-32 0 -53 21q-18 17 -33 64l-422 1266q-10 32 -10 55q0 8 1 15z" />
<glyph unicode="W" horiz-adv-x="1761" d="M69 1418q6 22 26.5 35t43.5 13q31 0 47 -16q19 -19 31 -68l276 -1102l301 1105q11 42 29 59q21 20 58 20q36 0 57 -20q19 -18 30 -59l301 -1105l275 1102q12 49 31 68q16 16 47 16q23 0 44 -13t27 -35q3 -8 3 -20q0 -20 -8 -51l-318 -1265q-12 -46 -36 -68 q-23 -22 -58 -22t-58 22q-24 22 -36 68l-301 1097l-301 -1097q-12 -46 -36 -68q-23 -22 -59 -22q-35 0 -58 22q-24 22 -36 68l-317 1265q-8 31 -8 51q0 12 3 20z" />
<glyph unicode="X" horiz-adv-x="1119" d="M86 63q0 27 24 71l353 614l-330 576q-23 42 -23 71q0 38 40 60q19 11 39 11q27 0 45 -16.5t35 -47.5l290 -523l293 523q17 31 35 47.5t45 16.5q21 0 40 -11q40 -22 40 -60q0 -27 -24 -71l-334 -575l356 -615q23 -42 23 -71q0 -38 -40 -60q-19 -11 -40 -11q-27 0 -45 16.5 t-35 47.5l-314 557l-313 -557q-17 -31 -35 -47.5t-45 -16.5q-21 0 -40 11q-40 22 -40 60z" />
<glyph unicode="Y" horiz-adv-x="1032" d="M88 1458q16 8 35 8q20 0 35 -10q21 -14 41 -55l317 -635l318 635q20 42 40 55q15 10 35 10q19 0 35 -8q37 -18 40 -55v-4q0 -24 -19 -64l-370 -739v-498q0 -51 -14 -73q-21 -33 -65 -33q-43 0 -64 33q-15 24 -15 73v498l-369 739q-20 42 -20 64q0 39 40 59z" />
<glyph unicode="Z" horiz-adv-x="1125" d="M97 76q0 26 27 72l707 1171h-606q-47 0 -67 12q-30 20 -30 58q0 37 30 57q20 12 67 12h700q55 0 76 -21q22 -24 22 -55q0 -24 -28 -72l-705 -1171h636q47 0 67 -12q30 -20 30 -57q0 -38 -30 -58q-20 -12 -67 -12h-730q-55 0 -77 22q-22 24 -22 54z" />
<glyph unicode="[" horiz-adv-x="644" d="M189 -61v1581q0 48 21 69t70 21h189q43 0 62 -12q29 -19 29 -55t-29 -55q-17 -11 -62 -11h-130v-1495h130q43 0 62 -12q29 -19 29 -55t-29 -55q-19 -12 -62 -12h-189q-49 0 -70 21t-21 70z" />
<glyph unicode="\" horiz-adv-x="729" d="M26 1574q7 19 26 31.5t41 12.5q51 0 74 -72l530 -1589q15 -47 6 -73q-7 -19 -26 -31.5t-41 -12.5q-51 0 -74 72l-530 1589q-15 47 -6 73z" />
<glyph unicode="]" horiz-adv-x="644" d="M84 -85q0 36 29 55q19 12 62 12h130v1495h-130q-45 0 -62 11q-29 19 -29 55t29 55q19 12 62 12h190q48 0 69 -21t21 -69v-1581q0 -49 -21 -70t-69 -21h-190q-43 0 -62 12q-29 19 -29 55z" />
<glyph unicode="^" d="M171 834q0 24 18 61l238 475q17 33 28 50t32 31.5t48 14.5q38 0 60 -23t47 -73l238 -475q18 -37 18 -61q0 -27 -21.5 -46t-48.5 -19q-26 0 -42 16t-31 48l-220 439l-221 -439q-15 -32 -31 -48t-42 -16q-27 0 -48.5 19t-21.5 46z" />
<glyph unicode="_" horiz-adv-x="1097" d="M47 -289q0 32 25 47q16 11 54 11h846q38 0 54 -11q25 -15 25 -47t-25 -47q-15 -10 -54 -10h-846q-39 0 -54 10q-25 15 -25 47z" />
<glyph unicode="`" horiz-adv-x="1089" d="M338 1481q0 39 35 59q18 11 39 11q23 0 39 -13t35 -44l100 -159q25 -41 25 -63q0 -40 -34 -60q-18 -11 -39 -11q-23 0 -39.5 13t-35.5 44l-99 159q-26 43 -26 64z" />
<glyph unicode="a" horiz-adv-x="1078" d="M101 286q0 134 93 213t256 79h305v81q0 118 -59 175.5t-189 57.5q-74 0 -124.5 -20.5t-103.5 -68.5q-31 -27 -63 -27q-28 0 -45 19q-18 21 -18 47q0 49 96 112q105 66 259 66q195 0 295 -86t100 -251v-591q0 -47 -13 -68q-20 -32 -62 -32q-41 0 -61 32q-13 21 -13 68v2 q-61 -59 -125.5 -82.5t-163.5 -23.5q-104 0 -172 21.5t-115 70.5q-77 80 -77 206zM248 287q0 -173 232 -173q74 0 126.5 13.5t95.5 54.5q53 51 53 175v108h-289q-108 0 -163 -45.5t-55 -132.5z" />
<glyph unicode="b" horiz-adv-x="1121" d="M185 92v1274q0 46 14 69q19 31 61 31q43 0 62 -31q13 -21 13 -69v-475q59 74 126.5 101.5t158.5 27.5q157 0 245 -88q125 -125 125 -428t-125 -428q-88 -88 -245 -88q-91 0 -158 29t-127 104v-29q0 -47 -13 -68q-20 -32 -62 -32q-41 0 -61 32q-14 23 -14 68zM335 504 q0 -66 5 -116.5t21 -103t43 -86.5t73.5 -55.5t110.5 -21.5t110.5 21.5t73.5 55.5t43 86.5t21 103t5 116.5t-5 116.5t-21 103t-43 86.5t-73.5 55.5t-110.5 21.5t-110.5 -21.5t-73.5 -55.5t-43 -86.5t-21 -103t-5 -116.5z" />
<glyph unicode="c" horiz-adv-x="1001" d="M129 504q0 250 122.5 383t322.5 133q140 0 246 -83q41 -33 56.5 -51t15.5 -44t-22 -48q-21 -19 -46 -19q-16 0 -29.5 8t-41.5 31q-50 41 -89.5 57t-89.5 16q-151 0 -230 -112q-35 -50 -50 -112.5t-15 -158.5t15 -158.5t50 -112.5q79 -112 230 -112q51 0 92 16t87 57 q43 38 71 38q26 0 46 -18q22 -22 22 -48q0 -25 -17.5 -46t-54.5 -50q-105 -82 -246 -82q-200 0 -322.5 133t-122.5 383z" />
<glyph unicode="d" horiz-adv-x="1121" d="M131 504q0 303 125 428q41 41 105.5 64.5t140.5 23.5q90 0 157.5 -27.5t126.5 -101.5v475q0 46 14 69q19 31 61 31q43 0 62 -31q13 -21 13 -69v-1274q0 -47 -13 -68q-20 -32 -62 -32q-41 0 -61 32q-14 23 -14 68v29q-60 -76 -126.5 -104.5t-157.5 -28.5 q-76 0 -140.5 23.5t-105.5 64.5q-125 125 -125 428zM281 504q0 -66 5 -116.5t21 -103t43 -86.5t73.5 -55.5t110.5 -21.5t110.5 21.5t73.5 55.5t42.5 86.5t20.5 103t5 116.5t-5 116.5t-20.5 103t-42.5 86.5t-73.5 55.5t-110.5 21.5t-110.5 -21.5t-73.5 -55.5t-43 -86.5 t-21 -103t-5 -116.5z" />
<glyph unicode="e" horiz-adv-x="1083" d="M129 504q0 247 111.5 381.5t304.5 134.5q190 0 300.5 -127t112.5 -340q0 -48 -20 -68q-19 -19 -66 -19h-594q0 -166 77 -257.5t222 -91.5q131 0 216 72q25 21 38.5 28.5t30.5 7.5q24 0 44 -19.5t20 -44.5q0 -49 -105 -115q-97 -58 -251 -58q-207 0 -324 128.5t-117 387.5 zM278 579h534q-4 96 -32 163q-29 70 -91 110.5t-144 40.5t-145 -41t-91 -110q-27 -64 -31 -163z" />
<glyph unicode="f" horiz-adv-x="648" d="M72 950q0 33 24 47q16 11 55 11h70v184q0 118 66.5 194t189.5 76h27q46 0 66 -12q28 -18 28 -52t-28 -52q-21 -13 -66 -13q-133 0 -133 -146v-179h148q37 0 54 -11q25 -15 25 -47t-25 -47q-15 -10 -54 -10h-148v-801q0 -45 -14 -68q-20 -32 -61 -32q-42 0 -62 32 q-13 21 -13 68v801h-70q-40 0 -55 10q-24 14 -24 47z" />
<glyph unicode="g" horiz-adv-x="1119" d="M131 512q0 297 123 420q40 40 106 64t142 24q91 0 157.5 -28t124.5 -103v26q0 46 14 69q20 32 61 32q42 0 62 -32q13 -21 13 -69v-945q0 -191 -114.5 -311.5t-311.5 -120.5q-133 0 -224 49q-39 21 -73 51t-34 60t20 49t43 19q26 0 74 -38q76 -61 191 -61q139 0 209 85.5 t70 222.5v161q-57 -74 -126 -104t-158 -30q-75 0 -140 24.5t-106 65.5q-123 123 -123 420zM281 511q0 -63 5 -111.5t20.5 -100t42 -85.5t73.5 -55.5t110 -21.5t109.5 22t73 55.5t42 85.5t20.5 100.5t5 111.5t-5 111.5t-20.5 100t-42 85.5t-73 56t-109.5 22t-110 -22 t-73.5 -56t-42 -85.5t-20.5 -100.5t-5 -112z" />
<glyph unicode="h" horiz-adv-x="1156" d="M185 92v1274q0 46 14 69q19 31 61 31q43 0 62 -31q13 -21 13 -69v-469q111 123 282 123t268 -100.5t97 -272.5v-555q0 -47 -13 -68q-20 -32 -62 -32q-41 0 -61 32q-13 21 -13 68v531q0 131 -64 197.5t-182 66.5t-185 -67t-67 -197v-531q0 -47 -13 -68q-20 -32 -62 -32 q-41 0 -61 32q-14 23 -14 68z" />
<glyph unicode="i" horiz-adv-x="530" d="M164 1385q0 42 29.5 72t71.5 30t72 -30t30 -72t-30 -71.5t-72 -29.5t-71.5 29.5t-29.5 71.5zM190 92v823q0 46 14 69q20 32 61 32q42 0 62 -32q13 -21 13 -69v-823q0 -47 -13 -68q-20 -32 -62 -32q-41 0 -61 32q-14 23 -14 68z" />
<glyph unicode="j" horiz-adv-x="530" d="M-37 -387q0 34 28 52q19 12 66 12q133 0 133 147v1091q0 46 14 69q20 32 61 32q42 0 62 -32q13 -21 13 -69v-1096q0 -118 -66.5 -194.5t-189.5 -76.5h-27q-45 0 -66 13q-28 18 -28 52zM164 1385q0 42 29.5 72t71.5 30t72 -30t30 -72t-30 -71.5t-72 -29.5t-71.5 29.5 t-29.5 71.5z" />
<glyph unicode="k" horiz-adv-x="1052" d="M185 92v1274q0 46 14 69q19 31 61 31q43 0 62 -31q13 -21 13 -69v-882l431 492q22 25 37 34.5t34 9.5q24 0 43 -16q24 -21 24 -50q0 -27 -36 -68l-234 -268l312 -492q26 -43 26 -64q0 -39 -35 -59q-18 -11 -39 -11q-23 0 -39 13t-36 44l-293 464l-195 -222v-199 q0 -47 -13 -68q-20 -32 -62 -32q-41 0 -61 32q-14 23 -14 68z" />
<glyph unicode="l" horiz-adv-x="604" d="M180 270v1096q0 46 14 69q19 31 61 31t61 -31q14 -23 14 -69v-1091q0 -146 133 -146q47 0 66 -12q28 -18 28 -52q0 -35 -28 -53q-19 -12 -66 -12h-27q-123 0 -189.5 76t-66.5 194z" />
<glyph unicode="m" horiz-adv-x="1805" d="M185 92v823q0 46 14 69q20 32 61 32q42 0 62 -32q13 -21 13 -69v-18q108 123 285 123q217 0 309 -168q118 168 332 168q163 0 260 -94q110 -105 110 -281v-553q0 -47 -13 -68q-20 -32 -62 -32q-41 0 -61 32q-13 21 -13 68v529q0 130 -66 198t-182 68q-113 0 -182 -66.5 t-69 -183.5v-545q0 -47 -13 -68q-20 -32 -62 -32q-41 0 -61 32q-13 21 -13 68v529q0 130 -65.5 198t-181.5 68q-117 0 -184.5 -68.5t-67.5 -197.5v-529q0 -47 -13 -68q-20 -32 -62 -32q-41 0 -61 32q-14 23 -14 68z" />
<glyph unicode="n" horiz-adv-x="1157" d="M185 92v823q0 46 14 69q20 32 61 32q42 0 62 -32q13 -21 13 -69v-18q111 123 282 123q166 0 262 -94q104 -101 104 -282v-552q0 -46 -13 -68q-20 -32 -62 -32q-43 0 -61 32q-13 22 -13 68v526q0 132 -65 200.5t-182 68.5q-118 0 -185 -69.5t-67 -199.5v-526 q0 -46 -13 -68q-20 -32 -62 -32q-41 0 -61 32q-14 24 -14 68z" />
<glyph unicode="o" horiz-adv-x="1089" d="M131 504q0 133 26 230t98 171q115 115 290 115t290 -115q72 -73 97.5 -170t25.5 -231q0 -133 -25.5 -231t-97.5 -171q-114 -114 -290 -114t-290 114q-72 73 -98 171t-26 231zM281 504q0 -106 16.5 -184t64.5 -126q73 -73 183 -73q109 0 182 73q48 48 65 126.5t17 183.5 t-17 183t-65 126q-74 74 -182 74q-109 0 -183 -74q-48 -48 -64.5 -125.5t-16.5 -183.5z" />
<glyph unicode="p" horiz-adv-x="1121" d="M185 -358v1273q0 46 14 69q20 32 61 32q42 0 62 -32q13 -21 13 -69v-28q60 75 127 104t158 29q157 0 245 -88q125 -125 125 -428t-125 -428q-88 -88 -245 -88q-91 0 -158.5 27.5t-126.5 101.5v-475q0 -48 -13 -69q-20 -32 -62 -32q-41 0 -61 32q-14 23 -14 69zM335 504 q0 -66 5 -116.5t21 -103t43 -86.5t73.5 -55.5t110.5 -21.5t110.5 21.5t73.5 55.5t43 86.5t21 103t5 116.5t-5 116.5t-21 103t-43 86.5t-73.5 55.5t-110.5 21.5t-110.5 -21.5t-73.5 -55.5t-43 -86.5t-21 -103t-5 -116.5z" />
<glyph unicode="q" horiz-adv-x="1121" d="M131 504q0 303 125 428q41 41 105.5 64.5t140.5 23.5q91 0 157.5 -28.5t126.5 -104.5v28q0 46 14 69q20 32 61 32q42 0 62 -32q13 -21 13 -69v-1273q0 -48 -13 -69q-20 -32 -62 -32q-41 0 -61 32q-14 23 -14 69v475q-59 -74 -126.5 -101.5t-157.5 -27.5 q-76 0 -140.5 23.5t-105.5 64.5q-125 125 -125 428zM281 504q0 -66 5 -116.5t21 -103t43 -86.5t73.5 -55.5t110.5 -21.5t110.5 21.5t73.5 55.5t42.5 86.5t20.5 103t5 116.5t-5 116.5t-20.5 103t-42.5 86.5t-73.5 55.5t-110.5 21.5t-110.5 -21.5t-73.5 -55.5t-43 -86.5 t-21 -103t-5 -116.5z" />
<glyph unicode="r" horiz-adv-x="864" d="M185 92v824q0 46 14 69q20 32 61 32q42 0 62 -32q13 -21 13 -69v-29q42 61 116.5 97t158.5 36q106 0 182 -48q56 -34 56 -76q0 -30 -22 -52t-51 -22q-21 0 -70 29q-59 36 -126 36q-111 0 -177.5 -76t-66.5 -196v-523q0 -47 -13 -68q-20 -32 -62 -32q-41 0 -61 32 q-14 23 -14 68z" />
<glyph unicode="s" horiz-adv-x="1015" d="M99 154q0 29 24 51q17 15 43 15t67 -29q105 -75 266 -75q130 0 199 44.5t69 132.5q0 67 -41 102.5t-127 43.5l-166 16q-301 26 -301 270q0 135 103.5 215.5t267.5 80.5q155 0 281 -64q38 -18 51 -36q11 -16 11 -38q0 -19 -17 -40q-20 -22 -47 -22q-18 0 -56 20 q-103 54 -225 54q-107 0 -166.5 -43.5t-59.5 -122.5q0 -68 43 -102.5t135 -42.5l161 -16q143 -13 220 -75.5t77 -197.5q0 -144 -112 -225.5t-298 -81.5q-214 0 -353 96q-49 32 -49 70z" />
<glyph unicode="t" horiz-adv-x="688" d="M67 950q0 33 24 47q16 11 54 11h71v216q0 47 13 68q20 32 62 32q41 0 61 -32q14 -23 14 -68v-216h148q38 0 54 -11q25 -15 25 -47t-25 -47q-15 -10 -54 -10h-148v-618q0 -146 133 -146q47 0 66 -12q28 -18 28 -52q0 -35 -28 -53q-19 -12 -66 -12h-27q-123 0 -189.5 76 t-66.5 194v623h-71q-39 0 -54 10q-24 14 -24 47z" />
<glyph unicode="u" horiz-adv-x="1157" d="M174 364v551q0 47 13 69q20 32 62 32q43 0 61 -32q14 -24 14 -69v-526q0 -132 64.5 -200t181.5 -68q118 0 185 69t67 199v526q0 45 14 69q20 32 61 32t61 -32q14 -24 14 -69v-823q0 -45 -14 -68q-20 -32 -61 -32t-61 32q-14 23 -14 68v19q-111 -123 -282 -123 q-165 0 -261 94q-105 102 -105 282z" />
<glyph unicode="v" horiz-adv-x="894" d="M61 972q7 19 26.5 31.5t41.5 12.5q51 0 74 -72l244 -733l245 733q23 72 74 72q22 0 41.5 -12.5t26.5 -31.5q3 -9 3 -21q0 -21 -10 -52l-282 -817q-17 -51 -42 -72q-23 -18 -56 -18t-55 18q-25 21 -42 72l-282 817q-10 31 -10 52q0 12 3 21z" />
<glyph unicode="w" horiz-adv-x="1472" d="M73 968q6 21 25 34.5t43 13.5q26 0 47 -21q16 -16 27 -57l210 -733l211 704q21 69 45 88q23 20 55 20q33 0 56 -20q24 -19 45 -88l211 -704l209 733q11 41 27 57q21 21 47 21q24 0 43.5 -13.5t25.5 -34.5q2 -8 2 -18q0 -20 -8 -51l-238 -797q-20 -69 -46 -90 q-23 -20 -58 -20t-58 20q-26 21 -46 90l-212 696l-212 -696q-20 -69 -46 -90q-23 -20 -57 -20q-36 0 -59 20q-26 21 -46 90l-237 797q-8 31 -8 51q0 10 2 18z" />
<glyph unicode="x" horiz-adv-x="901" d="M90 63q0 22 26 63l240 380l-238 376q-26 44 -26 63q0 39 36 60q19 12 39 12q23 0 39 -13.5t36 -44.5l209 -342l208 342q20 31 36 44.5t39 13.5q20 0 39 -12q36 -21 36 -60q0 -19 -26 -63l-239 -376l241 -380q26 -41 26 -63q0 -38 -35 -59q-20 -12 -40 -12q-23 0 -39 13 t-35 44l-211 345l-211 -345q-19 -30 -35.5 -43.5t-39.5 -13.5q-21 0 -40 12q-35 21 -35 59z" />
<glyph unicode="y" horiz-adv-x="893" d="M61 972q7 19 26.5 31.5t41.5 12.5q51 0 74 -72l243 -744l245 744q23 72 74 72q22 0 41.5 -12.5t26.5 -31.5q3 -9 3 -21q0 -21 -10 -52l-395 -1142q-26 -78 -72 -121q-71 -68 -185 -68q-51 0 -70 15q-22 19 -22 51q0 36 23 53q19 14 55 14q58 0 93.5 27.5t58.5 96.5 l64 190l-308 884q-10 31 -10 52q0 12 3 21z" />
<glyph unicode="z" horiz-adv-x="930" d="M91 68q0 30 31 72l525 734h-438q-44 0 -63 12q-28 19 -28 55t28 55q19 12 63 12h531q46 0 69 -15q28 -19 28 -52q0 -32 -30 -73l-526 -735h468q45 0 62 -11q29 -19 29 -55q0 -37 -29 -56q-17 -11 -62 -11h-562q-48 0 -67 14q-29 19 -29 54z" />
<glyph unicode="{" horiz-adv-x="723" d="M94 729q0 29 18 47t58 21q42 4 74 36q37 37 37 122v391q0 79 13.5 123.5t47.5 78.5q60 60 178 60h21q42 0 64 -11q31 -15 31 -55q0 -38 -29 -55q-21 -12 -59 -12q-64 0 -89 -25q-17 -17 -23.5 -46t-6.5 -86v-384q0 -83 -32.5 -128.5t-96.5 -76.5q64 -31 96.5 -76.5 t32.5 -128.5v-383q0 -57 6.5 -86t23.5 -46q24 -24 89 -24q36 0 59 -13q29 -17 29 -55q0 -39 -31 -55q-20 -10 -64 -10h-21q-119 0 -178 59q-34 34 -47.5 79t-13.5 124v389q0 86 -37 123q-32 32 -74 36q-41 3 -58 20q-18 18 -18 47z" />
<glyph unicode="|" horiz-adv-x="667" d="M259 -59v1577q0 47 13 68q20 32 62 32q41 0 61 -32q14 -23 14 -68v-1577q0 -46 -14 -69q-20 -32 -61 -32q-42 0 -62 32q-13 21 -13 69z" />
<glyph unicode="}" horiz-adv-x="723" d="M88 -83q0 38 29 55q23 13 59 13q65 0 89 24q17 17 23.5 46t6.5 86v383q0 83 32.5 128.5t96.5 76.5q-64 31 -96.5 76.5t-32.5 128.5v384q0 57 -6.5 86t-23.5 46q-25 25 -89 25q-38 0 -59 12q-29 17 -29 55q0 40 31 55q22 11 64 11h21q118 0 178 -60q34 -34 47.5 -78.5 t13.5 -123.5v-391q0 -85 37 -122q32 -32 74 -36q40 -3 58 -21t18 -47t-18 -47q-17 -17 -58 -20q-42 -4 -74 -36q-37 -37 -37 -123v-389q0 -79 -13.5 -124t-47.5 -79q-59 -59 -178 -59h-21q-44 0 -64 10q-31 16 -31 55z" />
<glyph unicode="~" horiz-adv-x="1103" d="M110 514q0 35 40 72q55 53 104.5 73t110.5 20q33 0 74 -11t65 -21t77 -33q103 -48 158 -48q40 0 70 13t68 48q27 26 55 26q25 0 45 -20q17 -19 17 -42q0 -35 -41 -73q-54 -53 -103.5 -72.5t-110.5 -19.5q-76 0 -217 64q-38 17 -56.5 25t-47.5 15.5t-54 7.5q-39 0 -69 -13 t-68 -48q-29 -26 -56 -26q-26 0 -44 20q-17 18 -17 43z" />
<glyph unicode="&#xa2;" horiz-adv-x="1001" d="M129 752q0 223 98.5 353.5t265.5 156.5v106q0 46 11 63q19 28 55 28t55 -28q12 -19 12 -63v-103q104 -10 194 -80q41 -33 56.5 -51t15.5 -44q0 -27 -22 -49q-20 -18 -46 -18q-16 0 -29.5 8t-41.5 31q-67 56 -130 68v-758q64 12 130 69q44 39 71 39q26 0 46 -18 q22 -22 22 -48t-17.5 -47.5t-54.5 -49.5q-86 -68 -194 -79v-155q0 -44 -12 -63q-19 -28 -55 -28t-55 28q-11 17 -11 63v159q-167 26 -265.5 157t-98.5 353zM279 752q0 -96 15 -158.5t50 -112.5q56 -80 152 -103v747q-94 -21 -152 -102q-35 -50 -50 -112.5t-15 -158.5z" />
<glyph unicode="&#xa3;" horiz-adv-x="1126" d="M93 730q0 32 25 47q15 10 54 10h67v229q0 208 126.5 331t328.5 123q167 0 275 -81q48 -37 48 -76q0 -27 -19 -49q-20 -22 -45 -22q-24 0 -64 28q-46 33 -90.5 47.5t-104.5 14.5q-143 0 -220.5 -87.5t-77.5 -249.5v-208h239q39 0 54 -10q25 -15 25 -47t-25 -47 q-15 -10 -54 -10h-239v-534h544q48 0 68 -12q29 -19 29 -57q0 -39 -29 -58q-20 -12 -68 -12h-606q-52 0 -74 22q-21 21 -21 73v578h-67q-39 0 -54 10q-25 15 -25 47z" />
<glyph unicode="&#xa5;" horiz-adv-x="1046" d="M59 1403q3 37 40 55q16 8 35 8q20 0 35 -10q21 -14 41 -55l314 -630l315 630q20 41 41 55q15 10 34 10t35 -8q37 -18 40 -55q2 -24 -19 -68l-260 -521h140q39 0 54 -10q25 -15 25 -47t-25 -47q-16 -11 -54 -11h-198l-50 -100v-99h248q38 0 54 -11q25 -15 25 -47t-25 -47 q-15 -10 -54 -10h-248v-287q0 -51 -14 -73q-21 -33 -65 -33q-43 0 -64 33q-15 24 -15 73v287h-247q-40 0 -55 10q-24 14 -24 47t24 47q16 11 55 11h247v99l-50 100h-197q-39 0 -55 11q-24 14 -24 47t24 47q15 10 55 10h141l-259 521q-22 46 -20 68z" />
<glyph unicode="&#xa8;" horiz-adv-x="1089" d="M233 1320q0 38 27.5 65.5t65.5 27.5t65.5 -27.5t27.5 -65.5t-27.5 -65t-65.5 -27t-65.5 27t-27.5 65zM671 1320q0 38 27 65.5t65 27.5t65.5 -27.5t27.5 -65.5t-27.5 -65t-65.5 -27t-65 27t-27 65z" />
<glyph unicode="&#xa9;" horiz-adv-x="1804" d="M161 729q0 151 58.5 288.5t157.5 236.5t236.5 157.5t288.5 58.5q202 0 372.5 -99t270 -269.5t99.5 -372.5t-99.5 -372.5t-270 -269.5t-372.5 -99q-151 0 -288.5 58.5t-236.5 157.5t-157.5 236.5t-58.5 288.5zM269 729q0 -130 50.5 -248.5t135 -204.5t202 -137t245.5 -51 t245.5 51t202 137t135 204.5t50.5 248.5t-50.5 248.5t-135 204.5t-202 137t-245.5 51t-245.5 -51t-202 -137t-135 -204.5t-50.5 -248.5zM589 729q0 168 85 270t242 102q119 0 193 -68q37 -34 37 -59q0 -20 -12 -32q-14 -14 -34 -14q-19 0 -54 28q-59 51 -130 51 q-117 0 -170 -76.5t-53 -201.5t53 -201t170 -76q72 0 130 50q35 28 54 28q20 0 34 -14q12 -12 12 -32q0 -25 -37 -59q-74 -68 -193 -68q-157 0 -242 102t-85 270z" />
<glyph unicode="&#xab;" horiz-adv-x="1175" d="M81 521l346 346q32 32 55 38q35 8 62 -19t19 -62q-6 -23 -38 -55l-247 -248l247 -248q32 -32 38 -55q8 -34 -19 -61q-28 -28 -62 -20q-23 6 -55 38zM544 521l346 346q32 32 55 38q35 8 62 -19t19 -62q-6 -23 -38 -55l-248 -248l248 -248q32 -32 38 -55q8 -34 -19 -61 q-28 -28 -62 -20q-23 6 -55 38z" />
<glyph unicode="&#xad;" horiz-adv-x="872" d="M147 552q0 36 29 55q17 11 63 11h395q45 0 62 -11q29 -19 29 -55t-29 -55q-19 -12 -62 -12h-395q-44 0 -63 12q-29 19 -29 55z" />
<glyph unicode="&#xae;" horiz-adv-x="1804" d="M161 729q0 151 58.5 288.5t157.5 236.5t236.5 157.5t288.5 58.5q202 0 372.5 -99t270 -269.5t99.5 -372.5t-99.5 -372.5t-270 -269.5t-372.5 -99q-151 0 -288.5 58.5t-236.5 157.5t-157.5 236.5t-58.5 288.5zM269 729q0 -130 50.5 -248.5t135 -204.5t202 -137t245.5 -51 t245.5 51t202 137t135 204.5t50.5 248.5t-50.5 248.5t-135 204.5t-202 137t-245.5 51t-245.5 -51t-202 -137t-135 -204.5t-50.5 -248.5zM685 432v596q0 36 14 51q16 15 52 15h184q97 0 163 -61.5t66 -155.5q0 -78 -41.5 -128.5t-112.5 -71.5l130 -220q17 -31 17 -48 q0 -26 -25 -41q-16 -9 -28 -9q-17 0 -28.5 10t-25.5 35l-152 261h-108v-233q0 -34 -11 -51q-15 -22 -42 -22t-42 22q-10 15 -10 51zM790 753h133q61 0 99 33.5t38 90.5t-38 90t-99 33h-133v-247z" />
<glyph unicode="&#xb4;" horiz-adv-x="1089" d="M482 1276q1 20 25 58l104 167q19 30 34 42q16 12 37 12q20 0 37 -11q36 -21 34 -58q-1 -21 -25 -59l-104 -166q-19 -30 -34 -42q-18 -13 -37 -13t-37 12q-36 21 -34 58z" />
<glyph unicode="&#xb8;" horiz-adv-x="1089" d="M333 -404q1 22 24 58l105 167q19 30 34 42q16 12 36 12t37 -11q36 -21 34 -59q-1 -22 -24 -58l-105 -167q-19 -30 -34 -42q-16 -12 -37 -12q-19 0 -36 11q-36 21 -34 59z" />
<glyph unicode="&#xbb;" horiz-adv-x="1175" d="M150 218q6 24 37 55l248 248l-248 248q-31 31 -37 55q-8 35 19 62t61 19q24 -6 56 -38l346 -346l-346 -346q-32 -32 -56 -38q-33 -8 -61 20q-27 27 -19 61zM612 218q6 23 38 55l248 248l-248 248q-32 32 -38 55q-8 34 20 62q27 27 61 19q24 -6 56 -38l346 -346l-346 -346 q-32 -32 -56 -38q-33 -8 -61 20t-20 61z" />
<glyph unicode="&#x106;" horiz-adv-x="1306" d="M156 729q0 114 2 179.5t10 134t24.5 112.5t43 87t68.5 85q141 143 363 143q247 0 391 -175q43 -52 68 -112.5t25 -99.5q0 -36 -21 -57q-20 -20 -52 -20q-30 0 -48 16q-22 20 -37 65q-39 117 -123 180.5t-204 63.5q-149 0 -250 -104q-67 -68 -85 -165.5t-18 -332.5 t18 -332.5t85 -165.5q101 -104 250 -104q120 0 204 63.5t123 180.5q15 45 37 65q19 17 48 17q31 0 52 -21t21 -57q0 -39 -25 -99.5t-68 -112.5q-144 -175 -391 -175q-222 0 -363 143q-42 42 -68.5 85t-43 87t-24.5 112.5t-10 134t-2 179.5zM603 1652q1 20 25 58l104 167 q19 30 34 42q16 12 37 12t37 -11q35 -20 33 -58q-1 -23 -24 -59l-105 -167q-19 -32 -33 -42q-17 -12 -37 -12t-37 11q-36 21 -34 59z" />
<glyph unicode="&#x107;" horiz-adv-x="1001" d="M129 504q0 250 122.5 383t322.5 133q140 0 246 -83q41 -33 56.5 -51t15.5 -44t-22 -48q-21 -19 -46 -19q-16 0 -29.5 8t-41.5 31q-50 41 -89.5 57t-89.5 16q-151 0 -230 -112q-35 -50 -50 -112.5t-15 -158.5t15 -158.5t50 -112.5q79 -112 230 -112q51 0 92 16t87 57 q43 38 71 38q26 0 46 -18q22 -22 22 -48q0 -25 -17.5 -46t-54.5 -50q-105 -82 -246 -82q-200 0 -322.5 133t-122.5 383zM513 1276q1 20 25 58l104 167q19 30 34 42q16 12 37 12t37 -11q35 -20 33 -58q-1 -23 -24 -59l-105 -166q-19 -32 -33 -42q-18 -13 -37 -13t-37 12 q-36 21 -34 58z" />
<glyph unicode="&#x10c;" horiz-adv-x="1306" d="M156 729q0 114 2 179.5t10 134t24.5 112.5t43 87t68.5 85q141 143 363 143q247 0 391 -175q43 -52 68 -112.5t25 -99.5q0 -36 -21 -57q-20 -20 -52 -20q-30 0 -48 16q-22 20 -37 65q-39 117 -123 180.5t-204 63.5q-149 0 -250 -104q-67 -68 -85 -165.5t-18 -332.5 t18 -332.5t85 -165.5q101 -104 250 -104q120 0 204 63.5t123 180.5q15 45 37 65q19 17 48 17q31 0 52 -21t21 -57q0 -39 -25 -99.5t-68 -112.5q-144 -175 -391 -175q-222 0 -363 143q-42 42 -68.5 85t-43 87t-24.5 112.5t-10 134t-2 179.5zM385 1847q-7 33 17 56 q22 24 55 17q22 -6 50 -34l159 -159l158 159q28 28 50 34q33 7 55 -17q23 -23 17 -56q-4 -21 -33 -50l-191 -190q-28 -28 -56 -28q-29 0 -57 28l-191 190q-29 29 -33 50z" />
<glyph unicode="&#x10d;" horiz-adv-x="1001" d="M129 504q0 250 122.5 383t322.5 133q140 0 246 -83q41 -33 56.5 -51t15.5 -44t-22 -48q-21 -19 -46 -19q-16 0 -29.5 8t-41.5 31q-50 41 -89.5 57t-89.5 16q-151 0 -230 -112q-35 -50 -50 -112.5t-15 -158.5t15 -158.5t50 -112.5q79 -112 230 -112q51 0 92 16t87 57 q43 38 71 38q26 0 46 -18q22 -22 22 -48q0 -25 -17.5 -46t-54.5 -50q-105 -82 -246 -82q-200 0 -322.5 133t-122.5 383zM295 1464q-7 32 17 56q22 24 55 17q22 -6 50 -34l158 -158l159 158q28 28 50 34q33 7 55 -17q23 -24 17 -56q-4 -21 -33 -50l-191 -190q-28 -28 -57 -28 q-28 0 -56 28l-191 190q-29 29 -33 50z" />
<glyph unicode="&#x110;" horiz-adv-x="1411" d="M63 735q0 35 27 52q19 12 62 12h88v564q0 53 21 74t74 21h406q124 0 217.5 -37t167.5 -116q31 -34 54 -73.5t37 -90t22 -91t11.5 -105.5t4 -103.5t0.5 -112.5t-0.5 -112.5t-4 -103t-11.5 -105.5t-22 -91t-37 -89.5t-54 -73.5q-144 -154 -385 -154h-406q-52 0 -74 22 q-21 21 -21 73v577h-88q-45 0 -62 11q-27 17 -27 52zM397 139h318q190 0 287 108q33 36 53.5 86t29 120t11 126.5t2.5 149.5t-2.5 149.5t-11 126.5t-29 120t-53.5 86q-97 108 -287 108h-318v-520h256q43 0 62 -12q26 -17 26 -52t-26 -52q-17 -11 -62 -11h-256v-533z" />
<glyph unicode="&#x111;" horiz-adv-x="1121" d="M131 504q0 305 125 428q41 41 105.5 64.5t140.5 23.5q90 0 157.5 -27.5t126.5 -101.5v275h-189q-37 0 -54 11q-25 15 -25 47t25 47q15 10 54 10h189v85q0 46 14 69q19 31 61 31q43 0 62 -31q13 -21 13 -69v-85h55q40 0 55 -10q24 -14 24 -47t-24 -47q-16 -11 -55 -11h-55 v-1074q0 -47 -13 -68q-20 -32 -62 -32q-41 0 -61 32q-14 23 -14 68v29q-60 -76 -126.5 -104.5t-157.5 -28.5q-76 0 -140.5 23.5t-105.5 64.5q-125 125 -125 428zM281 504q0 -66 5 -116.5t20.5 -103t42.5 -86.5t73 -55.5t110 -21.5t111 21.5t74 55.5t43 86.5t21 103t5 116.5 t-5 116.5t-21 103t-43 86.5t-74 55.5t-111 21.5t-110 -21.5t-73 -55.5t-42.5 -86.5t-20.5 -103t-5 -116.5z" />
<glyph unicode="&#x160;" horiz-adv-x="1205" d="M105 200q0 31 22 53q19 19 48 19q32 0 73 -32q82 -62 159 -87.5t184 -25.5q161 0 253 71t92 198q0 121 -71 184q-35 30 -72.5 44t-117.5 26l-171 27q-89 13 -150 38t-115 73q-113 100 -113 272q0 187 126 298.5t341 111.5q111 0 186.5 -22t170.5 -80q61 -36 61 -80 q0 -26 -18 -46q-19 -22 -49 -22q-26 0 -72 28q-73 50 -134 68.5t-151 18.5q-145 0 -227 -73t-82 -195q0 -114 67 -171q40 -34 83 -52t113 -28l160 -24q102 -17 162 -39.5t106 -62.5q122 -103 122 -289q0 -190 -138 -301.5t-367 -111.5q-133 0 -223.5 27.5t-191.5 95.5 q-66 44 -66 89zM319 1847q-6 32 18 56q22 23 54 17q22 -6 50 -34l159 -159l159 159q28 28 50 34q32 6 54 -17q24 -24 18 -56q-4 -21 -33 -50l-192 -190q-28 -28 -56 -28t-56 28l-192 190q-29 29 -33 50z" />
<glyph unicode="&#x161;" horiz-adv-x="1015" d="M99 154q0 29 24 51q17 15 43 15t67 -29q105 -75 266 -75q130 0 199 44.5t69 132.5q0 67 -41 102.5t-127 43.5l-166 16q-301 26 -301 270q0 135 103.5 215.5t267.5 80.5q155 0 281 -64q38 -18 51 -36q11 -16 11 -38q0 -19 -17 -40q-20 -22 -47 -22q-18 0 -56 20 q-103 54 -225 54q-107 0 -166.5 -43.5t-59.5 -122.5q0 -68 43 -102.5t135 -42.5l161 -16q143 -13 220 -75.5t77 -197.5q0 -144 -112 -225.5t-298 -81.5q-214 0 -353 96q-49 32 -49 70zM237 1464q-7 32 17 56q22 23 54 17q22 -6 50 -34l159 -158l159 158q28 28 50 34 q32 6 54 -17q24 -24 18 -56q-4 -21 -33 -50l-192 -190q-28 -28 -56 -28t-56 28l-192 190q-27 28 -32 50z" />
<glyph unicode="&#x17d;" horiz-adv-x="1125" d="M97 76q0 26 27 72l707 1171h-606q-47 0 -67 12q-30 20 -30 58q0 37 30 57q20 12 67 12h700q55 0 76 -21q22 -24 22 -55q0 -24 -28 -72l-705 -1171h636q47 0 67 -12q30 -20 30 -57q0 -38 -30 -58q-20 -12 -67 -12h-730q-55 0 -77 22q-22 24 -22 54zM285 1847q-7 33 17 56 q22 23 54 17q23 -6 51 -34l158 -159l159 159q28 28 50 34q32 6 54 -17q24 -24 18 -56q-4 -21 -33 -50l-191 -190q-28 -28 -57 -28q-28 0 -56 28l-192 190q-27 27 -32 50z" />
<glyph unicode="&#x17e;" horiz-adv-x="930" d="M91 68q0 30 31 72l525 734h-438q-44 0 -63 12q-28 19 -28 55t28 55q19 12 63 12h531q46 0 69 -15q28 -19 28 -52q0 -32 -30 -73l-526 -735h468q45 0 62 -11q29 -19 29 -55q0 -37 -29 -56q-17 -11 -62 -11h-562q-48 0 -67 14q-29 19 -29 54zM206 1464q-6 32 17 56 q22 24 55 17q22 -6 50 -34l158 -158l159 158q28 28 50 34q33 7 55 -17q24 -24 17 -56q-4 -21 -33 -50l-191 -190q-28 -28 -57 -28q-28 0 -56 28l-191 190q-29 29 -33 50z" />
<glyph unicode="&#x2c6;" horiz-adv-x="1089" d="M264 1273q6 23 33 50l191 190q28 28 57 28q28 0 56 -28l192 -190q25 -25 32 -50q8 -30 -17 -55q-24 -24 -54 -18q-23 6 -51 34l-158 159l-159 -159q-28 -28 -50 -34q-30 -6 -54 18q-25 25 -18 55z" />
<glyph unicode="&#x2da;" horiz-adv-x="1089" d="M302 1407q0 101 71 172t172 71q100 0 171 -71t71 -172t-71 -172t-171 -71q-101 0 -172 71t-71 172zM403 1407q0 -58 41.5 -99.5t100.5 -41.5t100 41t41 100t-41 100t-100 41t-100.5 -41.5t-41.5 -99.5z" />
<glyph unicode="&#x2dc;" horiz-adv-x="1089" d="M220 1322q0 30 37 62q75 64 157 64q42 0 72.5 -10.5t73.5 -36.5q70 -42 114 -42q25 0 43.5 6.5t46.5 30.5q31 26 52 26q23 0 38 -15t15 -40q0 -31 -36 -62q-75 -64 -157 -64q-42 0 -73 10.5t-74 36.5q-70 42 -113 42q-25 0 -43.5 -6.5t-46.5 -30.5q-31 -26 -53 -26 t-37 15q-16 16 -16 40z" />
<glyph unicode="&#x2000;" horiz-adv-x="965" />
<glyph unicode="&#x2001;" horiz-adv-x="1931" />
<glyph unicode="&#x2002;" horiz-adv-x="965" />
<glyph unicode="&#x2003;" horiz-adv-x="1931" />
<glyph unicode="&#x2004;" horiz-adv-x="643" />
<glyph unicode="&#x2005;" horiz-adv-x="482" />
<glyph unicode="&#x2006;" horiz-adv-x="321" />
<glyph unicode="&#x2007;" horiz-adv-x="321" />
<glyph unicode="&#x2008;" horiz-adv-x="241" />
<glyph unicode="&#x2009;" horiz-adv-x="386" />
<glyph unicode="&#x200a;" horiz-adv-x="107" />
<glyph unicode="&#x2010;" horiz-adv-x="872" d="M147 552q0 36 29 55q17 11 63 11h395q45 0 62 -11q29 -19 29 -55t-29 -55q-19 -12 -62 -12h-395q-44 0 -63 12q-29 19 -29 55z" />
<glyph unicode="&#x2011;" horiz-adv-x="872" d="M147 552q0 36 29 55q17 11 63 11h395q45 0 62 -11q29 -19 29 -55t-29 -55q-19 -12 -62 -12h-395q-44 0 -63 12q-29 19 -29 55z" />
<glyph unicode="&#x2012;" horiz-adv-x="872" d="M147 552q0 36 29 55q17 11 63 11h395q45 0 62 -11q29 -19 29 -55t-29 -55q-19 -12 -62 -12h-395q-44 0 -63 12q-29 19 -29 55z" />
<glyph unicode="&#x2013;" d="M99 552q0 36 29 55q17 11 62 11h689q45 0 62 -11q29 -19 29 -55t-29 -55q-19 -12 -62 -12h-689q-43 0 -62 12q-29 19 -29 55z" />
<glyph unicode="&#x2014;" horiz-adv-x="1869" d="M99 551q0 36 29 55q17 11 62 11h1489q46 0 63 -11q28 -19 28 -55t-28 -55q-19 -12 -63 -12h-1489q-43 0 -62 12q-29 19 -29 55z" />
<glyph unicode="&#x2018;" horiz-adv-x="499" d="M133 1104q-5 26 9 70l74 221q14 42 34 60q16 15 43 15q25 0 47 -15t27 -38t-10 -69l-73 -222q-14 -42 -34 -60q-17 -15 -43 -15q-25 0 -47 15t-27 38z" />
<glyph unicode="&#x2019;" horiz-adv-x="499" d="M133 1104q-5 26 9 70l74 221q14 42 34 60q16 15 43 15q25 0 47 -15t27 -38t-10 -69l-73 -222q-14 -42 -34 -60q-17 -15 -43 -15q-25 0 -47 15t-27 38z" />
<glyph unicode="&#x201a;" horiz-adv-x="499" d="M133 -189q-5 25 9 69l74 221q14 44 34 61q16 15 43 15q25 0 47 -15t27 -38q5 -24 -10 -70l-73 -221q-14 -42 -34 -60q-18 -16 -43 -16t-47 15.5t-27 38.5z" />
<glyph unicode="&#x201c;" horiz-adv-x="850" d="M133 1104q-5 26 9 70l74 221q14 42 34 60q16 15 43 15q25 0 47 -15t27 -38t-10 -69l-73 -222q-14 -42 -34 -60q-17 -15 -43 -15q-25 0 -47 15t-27 38zM484 1104q-5 24 10 70l73 221q14 42 34 60q17 15 43 15q25 0 47 -15t27 -38q5 -25 -9 -69l-74 -222q-14 -42 -34 -60 q-17 -15 -43 -15q-25 0 -47 15t-27 38z" />
<glyph unicode="&#x201d;" horiz-adv-x="850" d="M133 1104q-5 26 9 70l74 221q14 42 34 60q16 15 43 15q25 0 47 -15t27 -38t-10 -69l-73 -222q-14 -42 -34 -60q-17 -15 -43 -15q-25 0 -47 15t-27 38zM484 1104q-5 24 10 70l73 221q14 42 34 60q17 15 43 15q25 0 47 -15t27 -38q5 -25 -9 -69l-74 -222q-14 -42 -34 -60 q-17 -15 -43 -15q-25 0 -47 15t-27 38z" />
<glyph unicode="&#x201e;" horiz-adv-x="850" d="M133 -153q-5 26 9 70l74 221q14 44 34 61q16 15 43 15q25 0 47 -15t27 -38q5 -24 -10 -70l-73 -221q-14 -42 -34 -60q-18 -16 -43 -16t-47 15t-27 38zM484 -153q-5 24 10 70l73 221q14 44 34 61q17 15 43 15q25 0 47 -15t27 -38q5 -26 -9 -70l-74 -221q-14 -42 -34 -60 q-18 -16 -43 -16t-47 15t-27 38z" />
<glyph unicode="&#x2026;" horiz-adv-x="1544" d="M160 111q0 47 34.5 81.5t81.5 34.5t82 -34.5t35 -81.5t-35 -82t-82 -35t-81.5 35t-34.5 82zM655 111q0 47 35 81.5t82 34.5t82 -34.5t35 -81.5t-35 -82t-82 -35t-82 35t-35 82zM1151 111q0 47 35 81.5t82 34.5t81.5 -34.5t34.5 -81.5t-34.5 -82t-81.5 -35t-82 35t-35 82z " />
<glyph unicode="&#x202f;" horiz-adv-x="386" />
<glyph unicode="&#x2039;" horiz-adv-x="712" d="M81 521l346 346q32 32 55 38q35 8 62 -19t19 -62q-6 -23 -38 -55l-247 -248l247 -248q32 -32 38 -55q8 -34 -19 -61q-28 -28 -62 -20q-23 6 -55 38z" />
<glyph unicode="&#x203a;" horiz-adv-x="712" d="M150 218q6 24 37 55l248 248l-248 248q-31 31 -37 55q-8 35 19 62t61 19q24 -6 56 -38l346 -346l-346 -346q-32 -32 -56 -38q-33 -8 -61 20q-27 27 -19 61z" />
<glyph unicode="&#x205f;" horiz-adv-x="482" />
<glyph unicode="&#x20ac;" horiz-adv-x="1423" d="M131 585q0 32 25 47q15 10 54 10h62v186h-62q-38 0 -54 11q-25 15 -25 47t25 47q15 10 54 10h65q7 140 38 223.5t108 160.5q141 143 362 143q248 0 392 -175q43 -52 68 -112.5t25 -99.5q0 -36 -21 -57q-20 -20 -52 -20q-30 0 -48 16q-22 20 -37 65q-39 117 -123.5 180.5 t-204.5 63.5q-149 0 -250 -104q-49 -50 -70.5 -113t-27.5 -171h382q39 0 54 -10q25 -15 25 -47t-25 -47q-16 -11 -54 -11h-386v-186h386q39 0 54 -10q25 -15 25 -47t-25 -47q-16 -11 -54 -11h-383q6 -116 27 -180t72 -116q101 -104 250 -104q120 0 204.5 63.5t123.5 180.5 q15 45 37 65q19 17 48 17q31 0 52 -21t21 -57q0 -39 -25 -99.5t-68 -112.5q-144 -175 -392 -175q-221 0 -362 143q-78 78 -109 164t-37 232h-65q-38 0 -54 11q-25 15 -25 47z" />
<glyph unicode="&#x2122;" horiz-adv-x="1717" d="M65 1405q0 29 21 43q15 10 51 10h475q37 0 52 -10q21 -14 21 -43q0 -30 -21 -43q-15 -10 -52 -10h-179v-696q0 -38 -11 -55q-16 -26 -48 -26t-48 26q-12 18 -12 55v696h-177q-36 0 -51 10q-21 13 -21 43zM831 656v704q0 61 19 80q18 19 51 19q28 0 44 -13q19 -16 42 -63 l228 -455l229 455q23 47 42 63q16 13 44 13q33 0 51 -19q18 -18 18 -80v-704q0 -38 -10 -55q-16 -26 -48 -26t-48 26q-10 17 -10 55v558l-189 -370q-26 -53 -79 -53q-52 0 -78 53l-189 370v-558q0 -38 -10 -55q-16 -26 -48 -26t-48 26q-11 19 -11 55z" />
<glyph unicode="&#x25fc;" horiz-adv-x="1018" d="M0 0v1019h1019v-1019h-1019z" />
</font>
</defs>
</svg>
