<?xml version="1.0" encoding="utf-8"?>
<!-- Generator: Adobe Illustrator 19.2.0, SVG Export Plug-In . SVG Version: 6.00 Build 0)  -->
<svg version="1.1" id="Layer_1" xmlns="http://www.w3.org/2000/svg" xmlns:xlink="http://www.w3.org/1999/xlink" x="0px" y="0px"
	 viewBox="0 0 404.847 137.236" style="enable-background:new 0 0 404.847 137.236;" xml:space="preserve">
<style type="text/css">
	.st0{fill:#FFFFFF;}
</style>
<path class="st0" d="M129.994,129.994H7.256V7.243h122.738V129.994z M0,137.236h137.255V0H0V137.236z"/>
<path class="st0" d="M189.61,57.958c0-19.286,0-22.839-0.252-26.897c-0.263-4.31-1.275-6.349-5.461-7.233
	c-1.013-0.261-3.167-0.379-4.946-0.379c-1.388,0-2.155-0.251-2.155-1.144c0-0.885,0.887-1.146,2.791-1.146
	c6.718,0,14.717,0.384,18.272,0.384c5.192,0,12.564-0.384,18.397-0.384c15.858,0,21.565,5.332,23.6,7.234
	c2.791,2.668,6.347,8.372,6.347,15.099c0,18.019-13.2,30.706-31.215,30.706c-0.636,0-2.031,0-2.67-0.119
	c-0.63-0.137-1.516-0.264-1.516-1.153c0-1.013,0.886-1.396,3.55-1.396c7.107,0,17.008-7.99,17.008-20.932
	c0-4.188-0.392-12.688-7.495-19.031c-4.562-4.192-9.769-4.953-12.685-4.953c-1.904,0-3.803,0.137-4.946,0.515
	c-0.641,0.246-1.025,1.003-1.025,2.408v50.744c0,11.675,0,21.704,0.648,27.158c0.378,3.548,1.128,6.344,4.946,6.85
	c1.773,0.261,4.561,0.512,6.466,0.512c1.4,0,2.034,0.378,2.034,1.012c0,0.894-1.018,1.263-2.413,1.263
	c-8.37,0-16.367-0.369-19.666-0.369c-2.919,0-10.918,0.369-15.989,0.369c-1.647,0-2.538-0.369-2.538-1.263
	c0-0.634,0.513-1.012,2.034-1.012c1.899,0,3.425-0.251,4.567-0.512c2.533-0.506,3.169-3.302,3.678-6.978
	c0.634-5.326,0.634-15.355,0.634-27.03V57.958z"/>
<path class="st0" d="M348.903,109.705c17.895-27.28,37.175-56.326,54.675-84.742c0.508-0.894,1.021-1.651,1.021-2.413
	c0-0.633-0.895-1.012-2.159-1.012h-38.689c-5.203,0-11.296,0.128-23.345-0.383c-3.167-0.128-3.935-0.885-5.076-0.885
	c-0.761,0-1.27,0.634-1.522,2.413c-0.634,3.799-2.537,15.35-2.537,18.26c0,1.523,0.126,2.157,1.013,2.157
	c0.768,0,1.267-0.507,1.524-2.28c0.384-2.924,2.663-7.612,6.851-9.896c4.059-2.285,11.796-2.664,18.271-2.664h24.863
	c-16.997,26.765-35.781,55.437-53.663,83.347c-1.525,2.285-1.896,2.918-1.896,3.803c0,0.885,0.75,1.268,2.154,1.268
	c25.62,0,46.934,0.635,68.117,0.635c2.287,0,3.18-1.018,3.809-3.297c0.884-3.176,2.532-11.42,2.532-15.479
	c0-3.042-0.248-3.927-1.27-3.927c-0.759,0-1.012,0.757-1.263,2.02c-0.384,1.779-1.146,4.064-2.287,6.093
	c-2.025,3.808-6.977,6.982-19.918,6.982H348.903z"/>
<path class="st0" d="M308.591,95.177c0,13.326-9.766,16.415-15.525,16.415c-2.958,0-5.901-0.142-9.364-1.552
	c-4.091-1.665-4.461-3.836-4.461-12.313V67.372c0-0.629,0.242-0.899,0.736-0.899c1.937,0,3.222,0,5.523,0.133
	c5.015,0.246,7.94,1.135,10.636,3.074C305.878,76.468,308.591,87.23,308.591,95.177 M263.832,79.793c0,11.784,0,21.936-0.625,27.305
	c-0.532,3.724-1.147,6.519-3.701,7.043c-1.162,0.257-2.701,0.526-4.636,0.526c-1.535,0-2.034,0.378-2.034,1.022
	c0,0.889,0.888,1.271,2.564,1.271c5.118,0,13.188-0.383,16.114-0.383c3.886,0,15.534,0.761,18.594,0.761
	c23.588,0,34.227-14.22,34.227-27.924c0-14.991-12.822-24.102-23.318-27.702c7.048-5.615,13.067-11.887,13.067-22.408
	c0-6.784-4.082-19.224-27.319-19.224c-4.34,0-9.335,0.373-15.627,0.373c-2.549,0-10.619-0.373-17.414-0.373
	c-1.92,0-2.82,0.25-2.82,1.163c0,0.884,0.762,1.154,2.19,1.154c1.776,0,3.947,0.114,4.988,0.379
	c4.224,0.903,5.265,2.928,5.504,7.294c0.246,4.111,0.246,7.682,0.246,27.172V79.793z M279.241,27.764
	c0-1.41,0.242-1.916,1.138-2.181c1.28-0.246,2.448-0.246,4.234-0.246c11.006,0,16.02,11.273,16.02,19.849
	c0,6.296-1.941,10.913-5.26,13.591c-2.2,1.916-5,2.45-9.235,2.45c-2.939,0-4.862-0.123-6.028-0.397
	c-0.498-0.137-0.868-0.388-0.868-1.419V27.764z"/>
<path class="st0" d="M122.74,38.748l0.012-0.005l-0.05-0.033h-0.009c-0.828-0.501-2.089-0.781-2.945-0.421
	c-5.412-0.506-10.58-0.454-16.067-0.388h-0.166l-0.213,0.009c-2.746,0.034-5.591,0.062-8.429,0.019l-22.965-0.477
	c-5.383-0.142-11.282-0.1-17.07,0.118c-4.283,0.038-8.443,0.152-12.677,0.265c-4.419,0.118-14.963,0.152-21.257,0.18
	c-3.356,0.004-5.104,0.004-5.348,0.023c-0.745,0.038-1.641,1.083-1.66,1.911c-0.01,0.469,0.26,1.003,1.069,1.079
	c0.591,0.066,4.4,0.085,11.318,0.052l7.077-0.028c1.873,0,2.75,0.028,3.157-0.015h0.043c5.203-0.525,10.421-0.487,15.473-0.463
	h0.062h0.321c3.274,0.019,6.649,0.033,10.05-0.095c0.712,0.156,1.448,0.005,2.172-0.132l0.102-0.024
	c0.324-0.061,0.648-0.128,0.971-0.156c0.776,0.227,1.658,0.223,2.593,0.194c0.896-0.014,1.816-0.033,2.658,0.171v0.017h0.142v-0.038
	c0.736-0.241,1.41-0.108,2.117,0.038c0.019,0,0.13,0.019,0.13,0.019c0.333,0.062,0.653,0.119,0.954,0.128
	c6.575-0.185,13.836,0.061,22.888,0.757c-0.015,0,4.283,0.459,4.283,0.459v-0.01v0.01h0.053c3.807-0.374,7.741-0.09,11.549,0.193
	c0.004,0,0.097,0.005,0.097,0.005c2.862,0.209,5.56,0.407,8.247,0.35l0.01,0.029l0.166-0.052v-0.038l1.414-1.136h0.014l0.055-0.061
	l-0.01-0.009C123.554,40.437,123.405,39.362,122.74,38.748"/>
<path class="st0" d="M84.74,87.542l0.121-0.08l-0.01-0.279l-0.092-8.941v-0.024V78.19c-0.17-1.343-0.199-2.82-0.239-4.399
	c-0.038-1.77-0.076-3.605-0.31-5.223c-0.047-2.318-0.508-4.806-0.948-7.209l-0.301-1.637l-0.028-0.146l-0.116-0.114
	c-0.355-0.36-0.48-0.809-0.615-1.334c-0.109-0.44-0.234-0.889-0.506-1.32c-0.594-1.093-1.554-2.157-2.396-3.094l-0.04-0.052
	c-0.208-0.279-0.45-0.43-0.667-0.567c-0.121-0.081-0.249-0.156-0.379-0.265l-0.189-0.17l-0.111,0.023L77.76,52.57
	c-0.762-0.611-1.464-0.842-2.287-1.117h-0.019c-0.23-0.336-0.679-0.392-0.984-0.402v-0.222l-0.43-0.052l-1.992-0.303l-0.291-0.052
	l-0.18,0.251c-0.082,0.094-0.097,0.109-0.508-0.043c-0.194-0.066-0.397-0.142-0.634-0.156l-0.237-0.033l-0.106,0.118
	c-0.064-0.042-0.142-0.085-0.229-0.151l-0.828-0.232l-0.069,0.383c-0.362,0-0.681,0.062-0.944,0.208h-0.407h-0.91l-1.211,0.01
	l0.139,0.463l-0.019,0.024c-0.531-0.137-0.938,0.189-1.166,0.378c-0.049,0.033-0.101,0.071-0.118,0.091
	c-0.435,0.07-0.681,0.25-0.856,0.387c-0.125,0.095-0.17,0.123-0.286,0.137l-0.199,0.02l-0.144,0.151
	c-0.175,0.222-0.752,0.482-1.057,0.615l-0.667,0.298l0.139,0.151c-0.102,0.038-0.217,0.109-0.31,0.203h-0.156h-0.499v0.502v0.009
	c-0.028,0-0.047,0-0.066-0.009l-0.374-0.161c-0.023-0.009-0.256,0.312-0.256,0.312c-0.401,0.554-0.905,1.098-1.458,1.675
	c-0.63,0.667-1.28,1.371-1.779,2.124l-0.149,0.222l0.087,0.237c-0.12,0.061-0.421,0.26-0.475,0.624
	c-0.246,0.27-0.306,0.625-0.339,0.861c-0.023,0.076-0.035,0.175-0.054,0.222c-0.26,0.318-0.324,0.644-0.366,0.89
	c-0.031,0.184-0.045,0.293-0.123,0.388l-0.329,0.411l0.151,0.1c-0.097,0.241-0.106,0.501-0.106,0.652c0,0.067,0,0.147-0.012,0.199
	l-0.208,0.132l0.05,0.322c0.087,0.634,0.009,1.221-0.074,1.836c-0.088,0.586-0.149,1.197-0.097,1.864
	c-0.246,0.378-0.194,0.813-0.139,1.092c0.009,0.095,0.028,0.223,0.019,0.284l-0.315,0.246l0.227,0.383
	c0.17,0.289,0.04,0.747-0.092,1.192c-0.126,0.412-0.275,0.942-0.116,1.386c-0.043,0.038-0.083,0.076-0.111,0.119
	c-0.06,0.08-0.116,0.212-0.093,0.378c0,0.336-0.042,0.449-0.047,0.478l-0.239,0.482l-0.033,0.189l0.421,0.308
	c-0.047,0.284-0.009,0.558,0.023,0.785c0.05,0.322,0.06,0.464-0.032,0.592l-0.272,0.482l0.272,0.312V75.9
	c-0.019,0.214-0.048,0.616,0.236,0.895c0.01,0.061,0.015,0.118,0.031,0.16l-0.485,0.123l0.31,0.681c0,0.048-0.014,0.11-0.04,0.175
	c-0.043,0.185-0.126,0.587,0.082,0.932c-0.163,0.388-0.066,0.776,0.005,1.032c0.01,0.071,0.04,0.165,0.045,0.241
	c-0.456,0.478-0.232,1.116-0.106,1.462c-0.218,0.321-0.166,0.705-0.126,0.951l-0.617,0.212l0.636,0.639
	c-0.031,0.142-0.031,0.312,0.076,0.492c0.064,0.113,0.161,0.18,0.258,0.232l-0.194,0.057c0,0.023,0.023,0.038,0.028,0.056h-0.005
	l0.225,0.587l-0.012,0.057c-0.056,0.34,0.027,0.676,0.189,0.937c-0.047,0.065-0.082,0.174-0.101,0.278l-0.251,0.237l0.251,0.35
	c0.189,0.265,0.111,0.62-0.028,1.173c-0.116,0.478-0.268,1.102,0.009,1.637l-0.338,0.341l0.43,0.321
	c-0.009,0.014-0.019,0.043-0.028,0.052c-0.121,0.223-0.32,0.606-0.064,1.022l-0.019-0.042c0.092,0.184,0.047,0.525,0,0.865
	c-0.064,0.506-0.13,1.116,0.139,1.717l-0.082,0.61l0.021-0.075c-0.078,0.232-0.021,0.43,0.052,0.586l-0.194,0.086l0.142,0.425
	c0.14,0.431,0.14,0.979,0.14,1.542c0.009,1.084,0.009,2.304,0.984,3.231l0.208,0.204l0.277-0.09c0.721-0.208,0.763-0.927,0.782-1.32
	c0.005-0.09,0.005-0.161,0.017-0.227l0.019-0.109l-0.036-0.104c-0.295-0.974-0.163-2.28-0.061-3.415
	c0.028-0.317,0.061-0.596,0.078-0.876l0.019-0.137l-0.069-0.123c-0.198-0.402-0.154-0.79-0.092-1.248
	c0.045-0.407,0.092-0.875-0.047-1.358c0.172-2.086,0.066-4.561-0.015-6.746c-0.044-0.932-0.078-1.807-0.087-2.611v-0.019
	l-0.01-0.029c-0.128-1.031-0.096-2.138-0.059-3.207c0.029-0.974,0.059-1.958-0.037-2.871c0.236-1.046,0.217-1.996,0.193-3.013v-1.42
	l0.015-0.127l-0.031-0.061c0.22-0.28,0.276-0.554,0.161-0.828c0.101-0.388,0.125-0.743,0.125-1.079
	c0.009-0.265,0.024-0.511,0.078-0.743l0.024-0.118l-0.024-0.123c-0.069-0.222-0.009-0.468,0.043-0.733
	c0.073-0.341,0.175-0.724,0.03-1.107c0.388-0.79,0.469-1.741,0.547-2.687l0.028-0.317c0.04-0.208-0.038-0.398-0.198-0.563v-0.028
	c0-0.417,0.22-0.748,0.48-1.169c0.295-0.459,0.624-0.988,0.712-1.698l0.019-0.123l-0.01-0.019c0.031-0.033,0.074-0.076,0.107-0.104
	c0.184-0.156,0.461-0.383,0.456-0.757c0-0.071-0.014-0.128-0.033-0.194c0.338-0.312,0.56-0.667,0.75-0.993
	c0.281-0.469,0.489-0.805,1.036-0.965l0.277-0.085l0.073-0.27c0.078-0.313,0.343-0.492,0.768-0.748
	c0.322-0.203,0.679-0.43,0.937-0.771c0.367,0.029,0.584-0.07,0.707-0.203c0.435-0.099,0.769-0.364,1.041-0.582
	c0.466-0.364,0.615-0.449,0.92-0.308l0.31,0.142l0.208-0.198c0.005,0,0.024-0.009,0.035-0.009c0.145-0.034,0.398-0.105,0.542-0.341
	c0.144-0.028,0.251-0.076,0.369-0.104c0.241-0.09,0.305-0.095,0.397-0.048c0.098,0.052,0.265,0.124,0.474,0.062l0.009,0.038
	l0.369-0.048l0.48-0.061c1.429-0.184,2.668-0.345,3.787,0.256l0.402,0.217l0.239-0.364c0.052,0.056,0.102,0.118,0.149,0.165
	c0.291,0.322,0.795,0.88,1.521,0.757c0.16,0.142,0.345,0.246,0.489,0.341c0.083,0.028,0.156,0.09,0.209,0.123v0.033l0.101,0.118
	c0.232,0.312,0.717,0.454,1.095,0.473c0.838,0.875,1.701,2.086,1.701,2.621v0.492h0.371v0.033c0.152,0.653,0.336,1.462,0.835,1.992
	c-0.137,0.345-0.014,0.742,0.043,0.913c0.004,0.052,0.023,0.123,0.045,0.175l-0.123,0.378l0.331,0.336l0.066,0.033
	c-0.019,0.341,0.142,0.657,0.253,0.88c0.024,0.066,0.057,0.128,0.078,0.194l-0.078,0.18c-0.447,0.856,0.154,1.324,0.44,1.556
	c0.045,0.038,0.083,0.057,0.107,0.08c-0.223,0.17-0.213,0.355-0.256,0.658l0.033,0.378l0.161,0.246c0,0,0,0.01,0.009,0.01
	c0,0.014,0.01,0.028,0.024,0.042c0.014,0.076,0.055,0.18,0.107,0.289l-0.166,0.165l-0.116,0.455l0.249,0.345l0.189,0.099
	c0,0.208,0.08,0.384,0.139,0.502c0,0.028,0.01,0.052,0.019,0.08l-0.038,0.218c-0.17,0.813-0.369,1.868,0.135,2.72
	c-0.023,0.014-0.028,0.028-0.038,0.042c-0.239,0.313-0.18,0.677-0.137,0.942c0.01,0.08,0.031,0.222,0.026,0.264l-0.128,0.511
	c-0.009,0.019,0.161,0.062,0.301,0.1c-0.005,0.056-0.038,0.085-0.047,0.161l-0.102,0.577h0.189c-0.031,0.213-0.04,0.402-0.04,0.568
	c-0.005,0.298-0.019,0.491-0.121,0.647l-0.047,0.072l-0.021,0.08c-0.14,0.53,0.059,1.04,0.225,1.443
	c0.023,0.085,0.051,0.16,0.082,0.231c-0.082,0.095-0.17,0.228-0.165,0.421c0,0.048,0.023,0.086,0.028,0.123l-0.102,0.105
	l0.097,0.293c0.05,0.161,0.152,0.265,0.272,0.326l-0.083,0.033c-0.009,0-0.009,0.379-0.009,0.379v0.142l-0.324,0.089l0.163,0.318
	c-0.087,0.151-0.163,0.373-0.076,0.619l-0.22,0.379c0.01-0.014,0.041,0.232,0.23,0.316c-0.204,0.686,0.289,1.183,0.584,1.476
	c0.123,0.119,0.204,0.218,0.253,0.284h-0.236l0.182,0.644l0.005,0.018c-0.043,0.039-0.091,0.086-0.126,0.142l-0.421,0.199
	l0.144,0.554l-0.042,0.132c-0.102,0.284-0.024,0.483,0.064,0.606c0.014,0.019,0.038,0.042,0.056,0.052
	c-0.144,0.146-0.314,0.359-0.352,0.695l-0.04,0.468l0.374,0.057c-0.024,0.104-0.06,0.194-0.078,0.293
	c-0.048,0.171-0.088,0.327-0.168,0.445c-0.01,0.024-0.027,0.043-0.027,0.057l0.661,0.383c-0.088,0.18-0.157,0.34-0.195,0.473
	c-0.019,0.081-0.042,0.165-0.068,0.213H81.73h-0.567l0.03,0.643c0.034,0.104,0.043,0.218,0.062,0.346
	c0.014,0.123,0.028,0.255,0.059,0.397v0.644c0,0.089,0,0.222,0.038,0.364l-0.083,0.042l0.055,0.36c0.028,0.18,0.009,0.354,0,0.539
	c-0.01,0.09-0.014,0.218-0.014,0.327l-0.462,0.246l0.554,0.6v0.028c-0.069,0.138-0.147,0.346-0.147,0.573h-0.397l0.674,0.818
	c0.056,0.062,0.116,0.246,0.153,0.383c0,0.02,0.01,0.029,0.01,0.048c-0.284,0.265-0.32,0.662-0.343,0.88
	c-0.01,0.089-0.019,0.222-0.042,0.274c0,0,0.004-0.01,0.004-0.019l0.168,0.232c-0.13,0.09-0.213,0.203-0.255,0.302
	c-0.064,0.157-0.074,0.318-0.055,0.469H80.52l0.537,0.525l-0.499,0.17l0.416,0.355v1.325c0,0.245,0.112,0.445,0.31,0.553
	c0.027,0,0.031,0.005,0.031,0.005c0.274,0.18,0.565,0.17,0.804,0.104v0.553l0.634-0.184c0.471-0.133,0.828-0.161,1.202-0.09
	l0.527,0.109l0.064-0.535c0.26-1.991,0.213-3.921,0.154-5.771c-0.043-1.821-0.093-3.538,0.146-5.232
	C84.986,88.001,84.832,87.694,84.74,87.542"/>
<path class="st0" d="M46.631,87.542l0.113-0.08l-0.011-0.279l-0.095-8.941v-0.024V78.19c-0.156-1.343-0.184-2.82-0.225-4.399
	c-0.033-1.77-0.078-3.605-0.324-5.223c-0.028-2.318-0.499-4.806-0.944-7.209l-0.3-1.637l-0.031-0.146l-0.106-0.114
	c-0.367-0.36-0.478-0.809-0.62-1.334c-0.115-0.44-0.236-0.889-0.503-1.32c-0.606-1.093-1.559-2.157-2.392-3.094l-0.045-0.052
	c-0.208-0.279-0.454-0.43-0.674-0.567c-0.12-0.081-0.236-0.156-0.366-0.265l-0.19-0.17l-0.125,0.023l-0.152-0.113
	c-0.754-0.611-1.466-0.842-2.275-1.117h-0.021c-0.236-0.336-0.677-0.392-0.996-0.402v-0.222l-0.423-0.052l-1.984-0.303l-0.301-0.052
	l-0.175,0.251c-0.078,0.094-0.092,0.109-0.504-0.043c-0.194-0.066-0.397-0.142-0.634-0.156l-0.239-0.033l-0.116,0.118
	c-0.051-0.042-0.13-0.085-0.217-0.151l-0.828-0.232l-0.069,0.383c-0.366,0-0.692,0.062-0.943,0.208H29.49h-0.892l-1.216,0.01
	l0.14,0.463l-0.019,0.024c-0.537-0.137-0.944,0.189-1.173,0.378c-0.047,0.033-0.083,0.071-0.116,0.091
	c-0.43,0.07-0.679,0.25-0.847,0.387c-0.132,0.095-0.17,0.123-0.295,0.137l-0.194,0.02l-0.147,0.151
	c-0.177,0.222-0.745,0.482-1.06,0.615l-0.669,0.298l0.151,0.151c-0.115,0.038-0.217,0.109-0.319,0.203h-0.151h-0.504v0.502v0.009
	c-0.014,0-0.047,0-0.069-0.009l-0.361-0.161c-0.029-0.009-0.259,0.312-0.259,0.312c-0.402,0.554-0.919,1.098-1.456,1.675
	c-0.634,0.667-1.285,1.371-1.798,2.124l-0.149,0.222l0.102,0.237c-0.123,0.061-0.424,0.26-0.471,0.624
	c-0.258,0.27-0.314,0.625-0.355,0.861c-0.004,0.076-0.023,0.175-0.037,0.222c-0.263,0.318-0.325,0.644-0.369,0.89
	c-0.034,0.184-0.052,0.293-0.126,0.388l-0.319,0.411l0.144,0.1c-0.102,0.241-0.102,0.501-0.102,0.652
	c0,0.067-0.014,0.147-0.014,0.199l-0.213,0.132l0.055,0.322c0.087,0.634,0.009,1.221-0.074,1.836
	c-0.087,0.586-0.165,1.197-0.097,1.864c-0.246,0.378-0.189,0.813-0.151,1.092c0.021,0.095,0.04,0.223,0.031,0.284l-0.324,0.246
	l0.227,0.383c0.17,0.289,0.038,0.747-0.092,1.192c-0.125,0.412-0.267,0.942-0.111,1.386c-0.041,0.038-0.088,0.076-0.116,0.119
	c-0.06,0.08-0.107,0.212-0.093,0.378c0,0.336-0.035,0.449-0.054,0.478l-0.232,0.482l-0.038,0.189l0.436,0.308
	c-0.05,0.284-0.01,0.558,0.019,0.785c0.044,0.322,0.064,0.464-0.029,0.592l-0.272,0.482l0.272,0.312c0,0.029,0,0.052-0.009,0.085
	c-0.01,0.214-0.031,0.616,0.236,0.895c0.009,0.061,0.019,0.118,0.024,0.16l-0.481,0.123l0.323,0.681
	c-0.01,0.048-0.027,0.11-0.036,0.175c-0.047,0.185-0.13,0.587,0.064,0.932c-0.152,0.388-0.055,0.776,0,1.032
	c0.028,0.071,0.047,0.165,0.059,0.241c-0.452,0.478-0.239,1.116-0.114,1.462c-0.208,0.321-0.158,0.705-0.115,0.951l-0.611,0.212
	l0.62,0.639c-0.029,0.142-0.029,0.312,0.078,0.492c0.078,0.113,0.17,0.18,0.267,0.232L15.8,84.184c0,0.023,0.005,0.038,0.019,0.056
	h-0.014l0.227,0.587v0.057c-0.057,0.34,0.019,0.676,0.189,0.937c-0.057,0.065-0.092,0.174-0.106,0.278l-0.242,0.237l0.242,0.35
	c0.184,0.265,0.115,0.62-0.024,1.173c-0.126,0.478-0.272,1.102,0.009,1.637l-0.35,0.341l0.433,0.321
	c-0.004,0.014-0.019,0.043-0.026,0.052c-0.116,0.223-0.319,0.606-0.057,1.022l-0.028-0.042c0.092,0.184,0.057,0.525,0.009,0.865
	c-0.068,0.506-0.146,1.116,0.14,1.717l-0.092,0.61l0.014-0.075c-0.071,0.232-0.014,0.43,0.068,0.586l-0.198,0.086l0.13,0.425
	c0.146,0.431,0.156,0.979,0.156,1.542c0,1.084,0.009,2.304,0.972,3.231l0.22,0.204l0.274-0.09c0.724-0.208,0.767-0.927,0.786-1.32
	c0-0.09,0-0.161,0.004-0.227l0.024-0.109l-0.028-0.104c-0.291-0.974-0.168-2.28-0.062-3.415c0.019-0.317,0.062-0.596,0.066-0.876
	l0.024-0.137l-0.071-0.123c-0.194-0.402-0.151-0.79-0.092-1.248c0.057-0.407,0.102-0.875-0.05-1.358
	c0.166-2.086,0.078-4.561-0.009-6.746c-0.038-0.932-0.078-1.807-0.093-2.611v-0.019l-0.004-0.029
	c-0.125-1.031-0.093-2.138-0.061-3.207c0.037-0.974,0.061-1.958-0.032-2.871c0.231-1.046,0.216-1.996,0.199-3.013
	c-0.009-0.459-0.009-0.932,0-1.42v-0.127l-0.024-0.061c0.213-0.28,0.273-0.554,0.161-0.828c0.102-0.388,0.126-0.743,0.13-1.079
	c0.01-0.265,0.01-0.511,0.069-0.743l0.023-0.118l-0.023-0.123c-0.069-0.222-0.014-0.468,0.052-0.733
	c0.078-0.341,0.151-0.724,0.024-1.107c0.383-0.79,0.47-1.741,0.553-2.687l0.029-0.317c0.03-0.208-0.033-0.398-0.209-0.563v-0.028
	c0-0.417,0.218-0.748,0.485-1.169c0.291-0.459,0.625-0.988,0.722-1.698l0.009-0.123l-0.009-0.019
	c0.033-0.033,0.082-0.076,0.111-0.104c0.18-0.156,0.452-0.383,0.442-0.757c0-0.071-0.007-0.128-0.03-0.194
	c0.349-0.312,0.567-0.667,0.761-0.993c0.277-0.469,0.48-0.805,1.027-0.965l0.276-0.085l0.078-0.27
	c0.076-0.313,0.339-0.492,0.774-0.748c0.319-0.203,0.669-0.43,0.934-0.771c0.36,0.029,0.577-0.07,0.707-0.203
	c0.433-0.099,0.772-0.364,1.048-0.582c0.45-0.364,0.601-0.449,0.916-0.308l0.309,0.142l0.199-0.198c0.019,0,0.038-0.009,0.038-0.009
	c0.151-0.034,0.397-0.105,0.548-0.341c0.131-0.028,0.251-0.076,0.362-0.104c0.254-0.09,0.32-0.095,0.402-0.048
	c0.088,0.052,0.254,0.124,0.466,0.062l0.019,0.038l0.36-0.048l0.483-0.061c1.435-0.184,2.674-0.345,3.789,0.256l0.397,0.217
	l0.246-0.364c0.05,0.056,0.102,0.118,0.152,0.165c0.285,0.322,0.785,0.88,1.511,0.757c0.158,0.142,0.343,0.246,0.504,0.341
	c0.065,0.028,0.148,0.09,0.203,0.123v0.033l0.102,0.118c0.222,0.312,0.707,0.454,1.085,0.473c0.847,0.875,1.703,2.086,1.703,2.621
	v0.492h0.364c0,0.014,0.015,0.024,0.015,0.033c0.137,0.653,0.331,1.462,0.828,1.992c-0.145,0.345-0.019,0.742,0.04,0.913
	c0.014,0.052,0.033,0.123,0.047,0.175l-0.125,0.378l0.333,0.336l0.073,0.033c-0.019,0.341,0.135,0.657,0.249,0.88
	c0.019,0.066,0.056,0.128,0.071,0.194l-0.071,0.18c-0.447,0.856,0.158,1.324,0.444,1.556c0.043,0.038,0.074,0.057,0.102,0.08
	c-0.227,0.17-0.217,0.355-0.251,0.658l0.034,0.378l0.148,0.246l0.01,0.01c0.017,0.014,0.017,0.028,0.021,0.042
	c0.029,0.076,0.057,0.18,0.126,0.289l-0.185,0.165l-0.097,0.455l0.237,0.345l0.194,0.099c-0.01,0.208,0.073,0.384,0.132,0.502
	c0,0.028,0.009,0.052,0.028,0.08l-0.049,0.218c-0.168,0.813-0.367,1.868,0.132,2.72c-0.009,0.014-0.025,0.028-0.035,0.042
	c-0.236,0.313-0.168,0.677-0.135,0.942c0.014,0.08,0.038,0.222,0.019,0.264l-0.12,0.511c-0.01,0.019,0.16,0.062,0.305,0.1
	c-0.01,0.056-0.043,0.085-0.048,0.161l-0.106,0.577h0.208c-0.04,0.213-0.054,0.402-0.054,0.568c0,0.298-0.01,0.491-0.126,0.647
	l-0.04,0.072l-0.024,0.08c-0.144,0.53,0.054,1.04,0.218,1.443c0.026,0.085,0.054,0.16,0.078,0.231
	c-0.078,0.095-0.165,0.228-0.154,0.421c0,0.048,0.014,0.086,0.038,0.123l-0.116,0.105l0.092,0.293
	c0.062,0.161,0.154,0.265,0.282,0.326l-0.078,0.033c-0.019,0-0.019,0.379-0.019,0.379v0.142l-0.317,0.089l0.156,0.318
	c-0.078,0.151-0.161,0.373-0.078,0.619l-0.208,0.379c0-0.014,0.04,0.232,0.217,0.316c-0.194,0.686,0.291,1.183,0.596,1.476
	c0.121,0.119,0.199,0.218,0.258,0.284h-0.248l0.189,0.644v0.018c-0.043,0.039-0.088,0.086-0.135,0.142l-0.397,0.199l0.135,0.554
	l-0.048,0.132c-0.096,0.284-0.009,0.483,0.057,0.606c0.021,0.019,0.05,0.042,0.069,0.052c-0.149,0.146-0.315,0.359-0.343,0.695
	l-0.054,0.468l0.383,0.057c-0.034,0.104-0.064,0.194-0.083,0.293c-0.052,0.171-0.097,0.327-0.18,0.445h0.005
	c-0.005,0.024-0.024,0.043-0.033,0.057l0.664,0.383c-0.097,0.18-0.146,0.34-0.184,0.473c-0.019,0.081-0.055,0.165-0.073,0.213
	h-0.048h-0.563l0.033,0.643c0.031,0.104,0.045,0.218,0.06,0.346c0.019,0.123,0.023,0.255,0.063,0.397v0.644
	c0,0.089,0.01,0.222,0.034,0.364l-0.078,0.042l0.054,0.36c0.024,0.18,0.009,0.354,0,0.539c-0.01,0.09-0.021,0.218-0.021,0.327
	l-0.45,0.246l0.556,0.6c-0.014,0.014-0.019,0.019-0.019,0.019c-0.066,0.147-0.139,0.355-0.139,0.582h-0.398l0.679,0.818
	c0.057,0.062,0.102,0.246,0.14,0.383c0.014,0.02,0.014,0.029,0.019,0.048c-0.282,0.265-0.32,0.662-0.339,0.88
	c-0.019,0.089-0.028,0.222-0.049,0.274c0,0,0-0.01,0.011-0.019l0.168,0.232c-0.13,0.09-0.212,0.203-0.26,0.302
	c-0.069,0.157-0.078,0.318-0.054,0.469h-0.648l0.536,0.525l-0.494,0.17l0.412,0.355v1.325c0,0.245,0.106,0.445,0.31,0.553
	c0.014,0,0.019,0.005,0.019,0.005c0.276,0.18,0.567,0.17,0.804,0.104v0.553l0.645-0.184c0.459-0.133,0.823-0.161,1.193-0.09
	l0.522,0.109l0.071-0.535c0.267-1.991,0.206-3.921,0.161-5.771c-0.052-1.821-0.092-3.538,0.14-5.232
	C46.88,88.001,46.723,87.694,46.631,87.542"/>
<path class="st0" d="M122.198,88.224l0.118-0.09l-0.009-0.274l-0.097-8.932v-0.033v-0.028c-0.156-1.334-0.199-2.829-0.225-4.409
	c-0.047-1.765-0.085-3.586-0.324-5.218c-0.047-2.318-0.499-4.801-0.958-7.204l-0.286-1.632l-0.035-0.156l-0.107-0.119
	c-0.362-0.35-0.487-0.804-0.615-1.324c-0.12-0.44-0.227-0.894-0.513-1.32c-0.601-1.093-1.549-2.152-2.382-3.099l-0.045-0.042
	c-0.208-0.293-0.464-0.441-0.672-0.573c-0.127-0.08-0.248-0.156-0.369-0.274l-0.203-0.156l-0.111,0.028l-0.151-0.127
	c-0.755-0.615-1.458-0.843-2.281-1.107l-0.021-0.01c-0.241-0.335-0.686-0.383-0.996-0.397v-0.213l-0.418-0.071l-1.994-0.298
	l-0.286-0.042l-0.19,0.241c-0.064,0.089-0.083,0.113-0.513-0.034c-0.184-0.061-0.402-0.146-0.62-0.165l-0.229-0.019l-0.121,0.114
	c-0.052-0.048-0.139-0.095-0.222-0.137l-0.838-0.251l-0.054,0.374c-0.371,0-0.683,0.075-0.953,0.207h-0.411h-0.907l-1.211,0.01
	l0.145,0.469c-0.014,0.009-0.019,0.014-0.019,0.014c-0.542-0.129-0.96,0.198-1.183,0.388c-0.042,0.042-0.087,0.075-0.115,0.094
	c-0.426,0.071-0.675,0.251-0.843,0.388c-0.132,0.099-0.17,0.128-0.29,0.137l-0.214,0.019l-0.125,0.156
	c-0.184,0.227-0.752,0.473-1.062,0.61l-0.674,0.298l0.147,0.142c-0.107,0.048-0.218,0.114-0.315,0.209H98.25h-0.49v0.506v0.009
	c-0.028,0-0.066-0.004-0.092-0.009l-0.352-0.156c-0.029-0.01-0.272,0.312-0.272,0.312c-0.384,0.549-0.892,1.097-1.443,1.66
	c-0.629,0.677-1.285,1.377-1.798,2.134l-0.144,0.222l0.102,0.232c-0.128,0.071-0.428,0.26-0.495,0.629
	c-0.239,0.265-0.291,0.629-0.331,0.861c-0.009,0.08-0.028,0.18-0.042,0.222c-0.273,0.327-0.324,0.644-0.365,0.885
	c-0.033,0.189-0.056,0.298-0.144,0.397l-0.31,0.402l0.144,0.114c-0.092,0.227-0.092,0.487-0.092,0.638
	c0,0.062-0.014,0.152-0.019,0.209l-0.208,0.127l0.045,0.327c0.097,0.624,0.009,1.211-0.078,1.821
	c-0.078,0.596-0.147,1.202-0.092,1.873c-0.237,0.374-0.18,0.809-0.145,1.098c0.015,0.085,0.034,0.217,0.034,0.274l-0.324,0.256
	l0.226,0.378c0.171,0.289,0.039,0.743-0.096,1.192c-0.121,0.411-0.272,0.946-0.121,1.386c-0.031,0.029-0.078,0.066-0.102,0.123
	c-0.059,0.071-0.106,0.213-0.097,0.378c0,0.332-0.035,0.445-0.049,0.469l-0.232,0.477l-0.043,0.2l0.431,0.302
	c-0.054,0.284-0.01,0.563,0.028,0.79c0.045,0.322,0.064,0.463-0.028,0.591l-0.277,0.478l0.267,0.322v0.076
	c-0.024,0.222-0.044,0.614,0.232,0.898c0.009,0.062,0.019,0.109,0.033,0.157l-0.487,0.132l0.324,0.676
	c-0.009,0.048-0.031,0.114-0.04,0.171c-0.043,0.189-0.14,0.586,0.059,0.941c-0.151,0.388-0.05,0.766,0.019,1.027
	c0.019,0.07,0.028,0.165,0.04,0.236c-0.456,0.478-0.229,1.121-0.109,1.462c-0.203,0.326-0.158,0.719-0.12,0.955l-0.629,0.209
	l0.648,0.643c-0.029,0.142-0.029,0.312,0.073,0.487c0.078,0.118,0.17,0.189,0.267,0.232l-0.198,0.056
	c0.009,0.019,0.014,0.048,0.028,0.072h-0.014l0.232,0.572l-0.01,0.061c-0.052,0.35,0.024,0.682,0.194,0.937
	c-0.052,0.062-0.092,0.166-0.101,0.274l-0.256,0.246l0.251,0.346c0.184,0.27,0.106,0.619-0.034,1.178
	c-0.111,0.482-0.262,1.097,0.015,1.632l-0.346,0.34l0.438,0.317c-0.009,0.029-0.019,0.052-0.036,0.066
	c-0.111,0.204-0.314,0.597-0.056,1.008l-0.019-0.043c0.092,0.195,0.043,0.516,0,0.871c-0.059,0.506-0.128,1.107,0.135,1.708
	l-0.083,0.615l0.023-0.071c-0.075,0.231-0.023,0.426,0.055,0.586l-0.189,0.085l0.134,0.426c0.138,0.435,0.147,0.965,0.147,1.542
	c0,1.079,0,2.309,0.979,3.226l0.208,0.199l0.28-0.075c0.723-0.218,0.761-0.947,0.776-1.335c0.009-0.07,0.009-0.16,0.018-0.212
	l0.01-0.109l-0.028-0.109c-0.292-0.989-0.171-2.28-0.053-3.425c0.024-0.298,0.053-0.587,0.081-0.861v-0.151l-0.062-0.109
	c-0.194-0.402-0.147-0.795-0.092-1.254c0.057-0.416,0.097-0.865-0.045-1.352c0.171-2.096,0.069-4.565-0.019-6.756
	c-0.038-0.927-0.078-1.802-0.083-2.602v-0.033l-0.009-0.028c-0.125-1.022-0.088-2.133-0.057-3.212
	c0.028-0.955,0.057-1.954-0.031-2.857c0.225-1.041,0.211-2.001,0.189-3.014c0-0.454-0.009-0.927,0-1.428l0.01-0.123L93.9,71.941
	c0.237-0.269,0.282-0.549,0.175-0.823c0.102-0.393,0.121-0.752,0.126-1.079c0.009-0.264,0.023-0.51,0.073-0.742l0.023-0.123
	l-0.023-0.114c-0.073-0.222-0.014-0.482,0.052-0.747c0.073-0.326,0.151-0.714,0.019-1.102c0.383-0.781,0.47-1.746,0.549-2.682
	l0.033-0.313c0.035-0.203-0.043-0.397-0.204-0.567v-0.033c0-0.407,0.223-0.752,0.48-1.164c0.291-0.464,0.63-0.979,0.722-1.698
	l0.009-0.128l-0.009-0.014c0.023-0.038,0.078-0.076,0.116-0.104c0.175-0.152,0.451-0.388,0.442-0.757
	c0-0.076-0.01-0.137-0.031-0.199c0.35-0.307,0.563-0.667,0.757-0.984c0.277-0.477,0.485-0.813,1.031-0.974l0.272-0.081l0.078-0.269
	c0.076-0.308,0.339-0.483,0.779-0.752c0.314-0.204,0.669-0.426,0.936-0.762c0.357,0.023,0.57-0.081,0.696-0.203
	c0.437-0.104,0.766-0.369,1.052-0.592c0.45-0.369,0.606-0.449,0.916-0.302l0.309,0.141l0.199-0.198c0.019,0,0.028-0.01,0.038-0.01
	c0.151-0.038,0.402-0.113,0.553-0.34c0.126-0.029,0.251-0.067,0.357-0.1c0.254-0.099,0.31-0.104,0.402-0.052
	c0.098,0.052,0.259,0.114,0.457,0.066l0.019,0.034l0.374-0.048l0.48-0.061c1.433-0.19,2.672-0.35,3.791,0.255l0.398,0.222
	l0.232-0.364c0.059,0.057,0.115,0.118,0.151,0.166c0.3,0.312,0.795,0.865,1.525,0.742c0.149,0.142,0.339,0.261,0.5,0.351
	c0.056,0.033,0.153,0.09,0.213,0.128v0.023l0.093,0.132c0.227,0.294,0.707,0.445,1.09,0.459c0.837,0.885,1.7,2.087,1.7,2.626v0.492
	h0.367l0.01,0.028c0.142,0.663,0.319,1.471,0.835,2.001c-0.147,0.336-0.026,0.738,0.033,0.908c0.024,0.052,0.038,0.118,0.047,0.18
	l-0.121,0.374l0.334,0.327l0.073,0.037c-0.028,0.336,0.13,0.672,0.249,0.89c0.014,0.056,0.052,0.118,0.075,0.184l-0.07,0.184
	c-0.452,0.861,0.143,1.33,0.425,1.547c0.047,0.043,0.087,0.071,0.116,0.095c-0.227,0.17-0.217,0.354-0.272,0.657l0.055,0.374
	l0.148,0.241l0.01,0.01c0.012,0.019,0.012,0.033,0.016,0.047c0.024,0.076,0.062,0.175,0.121,0.294l-0.175,0.16l-0.116,0.445
	l0.246,0.36l0.199,0.089c-0.005,0.213,0.068,0.388,0.123,0.511c0.014,0.024,0.033,0.043,0.047,0.067l-0.052,0.231
	c-0.17,0.809-0.379,1.864,0.13,2.721c-0.009,0.014-0.028,0.023-0.028,0.023c-0.244,0.331-0.189,0.691-0.152,0.946
	c0.024,0.095,0.038,0.237,0.029,0.279l-0.13,0.507c0,0.018,0.171,0.065,0.31,0.094c-0.015,0.048-0.038,0.109-0.043,0.151
	l-0.111,0.596h0.203c-0.04,0.199-0.049,0.388-0.049,0.563c-0.01,0.298-0.015,0.492-0.121,0.644l-0.038,0.075l-0.026,0.071
	c-0.144,0.544,0.054,1.046,0.213,1.457c0.031,0.081,0.059,0.156,0.078,0.218c-0.078,0.104-0.163,0.236-0.149,0.435
	c0,0.038,0.014,0.076,0.028,0.118l-0.106,0.1l0.092,0.293c0.048,0.171,0.149,0.27,0.277,0.336l-0.078,0.019
	c-0.028,0-0.028,0.392-0.028,0.392v0.133l-0.313,0.095l0.161,0.321c-0.073,0.147-0.161,0.369-0.073,0.615l-0.218,0.379
	c0,0,0.04,0.231,0.222,0.326c-0.182,0.672,0.296,1.169,0.601,1.466c0.116,0.123,0.199,0.213,0.258,0.289h-0.248l0.175,0.639
	l0.014,0.014c-0.047,0.042-0.088,0.085-0.135,0.142l-0.407,0.198l0.135,0.549l-0.052,0.137c-0.092,0.279-0.005,0.483,0.076,0.606
	c0.026,0.028,0.03,0.042,0.064,0.061c-0.154,0.137-0.324,0.364-0.353,0.686l-0.049,0.473l0.383,0.047
	c-0.029,0.104-0.064,0.199-0.088,0.303c-0.047,0.175-0.088,0.322-0.175,0.445h0.009c-0.009,0.019-0.023,0.033-0.037,0.066
	l0.669,0.369c-0.097,0.175-0.156,0.35-0.184,0.488c-0.019,0.065-0.055,0.146-0.074,0.198h-0.047h-0.563l0.028,0.648
	c0.036,0.104,0.05,0.218,0.064,0.355c0.005,0.104,0.024,0.241,0.053,0.397v0.639c0,0.085,0.011,0.222,0.04,0.355l-0.088,0.047
	l0.059,0.35c0.029,0.18,0.01,0.365,0,0.539c-0.011,0.105-0.011,0.213-0.011,0.341l-0.455,0.227l0.546,0.61
	c0,0.005-0.009,0.019-0.009,0.024c-0.061,0.156-0.135,0.355-0.135,0.582h-0.402l0.679,0.813c0.052,0.062,0.106,0.251,0.144,0.384
	c0.01,0.037,0.01,0.037,0.01,0.052c-0.274,0.26-0.324,0.657-0.338,0.87c0,0.1-0.019,0.232-0.04,0.279v-0.009l0.169,0.217
	c-0.129,0.104-0.207,0.213-0.25,0.308c-0.064,0.165-0.078,0.321-0.064,0.473h-0.648l0.537,0.534l-0.504,0.161l0.421,0.35v1.334
	c0,0.237,0.116,0.445,0.31,0.535c0,0,0.029,0.014,0.04,0.019c0.265,0.17,0.547,0.17,0.793,0.108v0.558l0.645-0.193
	c0.459-0.142,0.819-0.166,1.188-0.095l0.532,0.104l0.068-0.529c0.251-1.983,0.204-3.908,0.154-5.776
	c-0.042-1.822-0.087-3.534,0.135-5.218C122.446,88.683,122.295,88.38,122.198,88.224"/>
</svg>
