<?xml version="1.0" encoding="utf-8"?>
<!-- Generator: Adobe Illustrator 19.2.0, SVG Export Plug-In . SVG Version: 6.00 Build 0)  -->
<svg version="1.1" id="Layer_1" xmlns="http://www.w3.org/2000/svg" xmlns:xlink="http://www.w3.org/1999/xlink" x="0px" y="0px"
	 viewBox="0 0 163.845 35.06" style="enable-background:new 0 0 163.845 35.06;" xml:space="preserve">
<style type="text/css">
	.st0{fill:#FFFFFF;}
</style>
<g>
	<path class="st0" d="M42.023,1.548c0-0.972,0.684-1.44,2.052-1.44h8.279c5.363,0,8.207,3.744,8.207,7.487
		c0,2.952-1.8,5.903-5.543,6.911l5.04,9.863c0.216,0.432,0.324,0.864,0.324,1.26c0,0.684-0.36,1.188-1.152,1.188
		c-0.468,0-0.936-0.144-1.224-0.72L52.21,15.082h-7.559v10.079c0,1.08-0.432,1.62-1.295,1.62c-0.9,0-1.332-0.54-1.332-1.62V1.548
		H42.023z M44.651,2.736v9.719h7.991c3.527,0,5.184-2.34,5.184-4.751c0-2.448-1.764-4.967-5.184-4.967L44.651,2.736L44.651,2.736z"
		/>
	<path class="st0" d="M79.39,15.118c0,1.944-0.324,2.916-2.016,2.916H65.208c0,3.24,3.239,6.515,6.443,6.515
		c2.016,0,3.276-0.396,4.896-1.835c0.468-0.432,1.044-0.648,1.548-0.648c0.684,0,1.188,0.396,1.188,1.224
		c0,0.288-0.072,0.54-0.252,0.72c-1.692,2.124-4.176,3.204-7.379,3.204c-5.939,0-9.287-4.824-9.287-10.511
		c0-5.292,3.096-10.583,8.711-10.583C76.402,6.119,79.39,9.863,79.39,15.118z M76.726,15.442c0-3.672-2.124-6.659-5.543-6.659
		c-3.456,0-5.939,3.06-5.939,6.659L76.726,15.442z"/>
	<path class="st0" d="M83.171,7.559c0-0.936,0.432-1.404,1.332-1.404s1.332,0.468,1.332,1.404v2.736
		c0.792-2.268,3.492-4.14,5.939-4.14c5.579,0,8.387,5.436,8.387,10.655s-2.808,10.403-8.387,10.403
		c-2.556,0-4.896-1.296-5.939-3.564v9.971c0,0.9-0.648,1.439-1.368,1.439c-0.864,0-1.296-0.504-1.296-1.476V7.559z M97.461,16.954
		c0-3.563-1.439-8.135-5.435-8.135c-4.176,0-5.976,4.211-5.976,7.991c0,3.852,1.8,7.955,5.976,7.955
		C96.022,24.765,97.461,20.589,97.461,16.954z"/>
	<path class="st0" d="M117.297,22.029l6.047-19.618c0.468-1.548,1.404-2.339,2.592-2.339c1.224,0,1.979,0.864,2.231,2.627
		l3.348,22.461c0,0.108,0.036,0.18,0.036,0.288c0,0.792-0.576,1.296-1.332,1.296c-0.864,0-1.296-0.468-1.44-1.439l-3.06-21.85
		L118.7,25.232c-0.324,1.044-0.864,1.548-1.476,1.548c-0.648,0-1.152-0.504-1.476-1.548L108.982,3.42l-3.312,21.849
		c-0.144,0.972-0.54,1.476-1.44,1.476c-0.756,0-1.26-0.396-1.26-1.224c0-0.144,0-0.288,0.036-0.432L106.57,2.7
		c0.288-1.8,1.044-2.7,2.304-2.7c1.152,0,2.052,0.792,2.52,2.412L117.297,22.029z"/>
	<path class="st0" d="M151.748,15.118c0,1.944-0.324,2.916-2.016,2.916h-12.167c0,3.24,3.239,6.515,6.443,6.515
		c2.016,0,3.276-0.396,4.896-1.835c0.468-0.432,1.044-0.648,1.548-0.648c0.684,0,1.188,0.396,1.188,1.224
		c0,0.288-0.072,0.54-0.252,0.72c-1.692,2.124-4.176,3.204-7.379,3.204c-5.939,0-9.287-4.824-9.287-10.511
		c0-5.292,3.096-10.583,8.711-10.583C148.76,6.119,151.748,9.863,151.748,15.118z M149.084,15.442c0-3.672-2.124-6.659-5.543-6.659
		c-3.456,0-5.939,3.06-5.939,6.659L149.084,15.442z"/>
	<path class="st0" d="M156.646,3.924c0-0.864,0.432-1.296,1.296-1.296c0.9,0,1.332,0.432,1.332,1.296v2.952h3.168
		c0.936,0,1.404,0.396,1.404,1.224s-0.432,1.224-1.332,1.224h-3.24v11.015c0,2.88,0.252,4.32,2.628,4.32
		c1.044,0,1.583,0.396,1.583,1.188c0,0.828-0.54,1.26-1.583,1.26c-4.284,0-5.255-2.556-5.255-6.767V9.287h-1.152
		c-0.864,0-1.296-0.396-1.296-1.224c0-0.792,0.36-1.188,1.116-1.188h1.332V3.924H156.646z"/>
</g>
<g>
	<line class="st0" x1="4.5" y1="1.509" x2="4.5" y2="25.337"/>
	<path class="st0" d="M4.5,26.837c-0.829,0-1.5-0.671-1.5-1.5V1.509c0-0.829,0.671-1.5,1.5-1.5S6,0.681,6,1.509v23.828
		C6,26.166,5.329,26.837,4.5,26.837z"/>
</g>
<g>
	<line class="st0" x1="10.992" y1="13.462" x2="10.992" y2="25.337"/>
	<path class="st0" d="M10.992,26.837c-0.829,0-1.5-0.671-1.5-1.5V13.462c0-0.829,0.671-1.5,1.5-1.5s1.5,0.671,1.5,1.5v11.875
		C12.492,26.166,11.821,26.837,10.992,26.837z"/>
</g>
<g>
	<line class="st0" x1="17.485" y1="20.607" x2="17.485" y2="25.337"/>
	<path class="st0" d="M17.485,26.837c-0.829,0-1.5-0.671-1.5-1.5v-4.729c0-0.829,0.671-1.5,1.5-1.5s1.5,0.671,1.5,1.5v4.729
		C18.985,26.166,18.313,26.837,17.485,26.837z"/>
</g>
<g>
	<line class="st0" x1="23.977" y1="9.452" x2="23.977" y2="25.337"/>
	<path class="st0" d="M23.977,26.837c-0.829,0-1.5-0.671-1.5-1.5V9.452c0-0.829,0.671-1.5,1.5-1.5s1.5,0.671,1.5,1.5v15.885
		C25.477,26.166,24.806,26.837,23.977,26.837z"/>
</g>
</svg>
